<svg xmlns="http://www.w3.org/2000/svg" width="41.3" height="32" viewBox="0 0 41.3 32">
    <defs>
        <style>
            .cls-1{fill:#32325d}
        </style>
    </defs>
    <g id="XMLID_1321_" transform="translate(0 -57.647)">
        <g id="XMLID_396_" transform="translate(0 57.647)">
            <path id="XMLID_429_" d="M41.04 68.523l-1.075-1.863a.807.807 0 0 0-1.4.807l1.076 1.863a.315.315 0 0 1-.115.43l-2.843 1.64a.315.315 0 0 1-.43-.115l-5.723-9.91a.315.315 0 0 1 .115-.43L33.49 59.3a.315.315 0 0 1 .43.115l1.017 1.762a.807.807 0 1 0 1.4-.807l-1.017-1.762a1.93 1.93 0 0 0-2.634-.706l-2.845 1.642a1.921 1.921 0 0 0-.872 1.084H20.9a4.211 4.211 0 0 0-3 1.242l-.826.826a9.543 9.543 0 0 0-2.213-.262h-2.5a1.922 1.922 0 0 0-.9-1.187l-2.845-1.639a1.928 1.928 0 0 0-2.634.706L.259 70.226a1.928 1.928 0 0 0 .706 2.634l2.844 1.64a1.916 1.916 0 0 0 .961.258 1.941 1.941 0 0 0 .354-.033l2.328 2.328a2.934 2.934 0 0 0-.054.561 2.9 2.9 0 0 0 2.741 2.9 2.946 2.946 0 0 0-.016.306 2.9 2.9 0 0 0 2.9 2.9h.063v.063a2.9 2.9 0 0 0 2.9 2.9h.063v.063A2.9 2.9 0 0 0 21 88.8l1.15-1.15a2.884 2.884 0 0 0 .708-1.16 2.9 2.9 0 0 0 4.494-1.475 2.9 2.9 0 0 0 4.426-1.847 2.9 2.9 0 0 0 2.967-4.806l-1.883-1.883 3.438-3.436a1.943 1.943 0 0 0 .23.014 1.916 1.916 0 0 0 .961-.258l2.845-1.642a1.928 1.928 0 0 0 .706-2.634zm-39.269 2.94a.315.315 0 0 1-.115-.43l5.723-9.912a.313.313 0 0 1 .191-.147.324.324 0 0 1 .082-.011.311.311 0 0 1 .156.042l2.845 1.642a.315.315 0 0 1 .115.43L5.046 72.99a.315.315 0 0 1-.43.115zm7.241 6.154a1.28 1.28 0 0 1 .377-.911l.7-.7a1.289 1.289 0 1 1 1.822 1.822l-.7.7a1.289 1.289 0 0 1-2.2-.911zm4.013 4.49a1.289 1.289 0 0 1-.911-2.2l1.147-1.147a1.289 1.289 0 1 1 1.822 1.822l-1.147 1.148a1.28 1.28 0 0 1-.911.378zm2.963 2.963a1.289 1.289 0 0 1-.911-2.2l1.147-1.147a1.289 1.289 0 1 1 1.822 1.822L16.9 84.693a1.28 1.28 0 0 1-.912.378zm5.022 1.438l-1.147 1.147a1.289 1.289 0 1 1-1.822-1.822l1.147-1.147a1.289 1.289 0 1 1 1.822 1.822zm12.59-5.183a1.288 1.288 0 0 1-1.822 0l-7.7-7.7a.807.807 0 0 0-1.141 1.141l6.9 6.9a1.289 1.289 0 1 1-1.822 1.822l-8.3-8.3a.807.807 0 1 0-1.141 1.141l6.9 6.9a1.289 1.289 0 1 1-1.822 1.822l-1.502-1.505-.007-.006a2.893 2.893 0 0 0-2.108-.841v-.064a2.9 2.9 0 0 0-2.965-2.9v-.064a2.9 2.9 0 0 0-3.17-2.886 2.9 2.9 0 0 0-4.951-1.915l-.7.7-1.794-1.793 5.615-9.726h2.8a7.923 7.923 0 0 1 .819.043l-.922.922a2.9 2.9 0 0 0 4.1 4.1l2.178-2.178L33.6 79.5a1.29 1.29 0 0 1 0 1.822zm-7.75-11.854a4.577 4.577 0 0 0 1.893-3.71.807.807 0 0 0-1.613 0 2.964 2.964 0 0 1-1.445 2.545l-3.072-3.072a.806.806 0 0 0-1.14-.008l-2.752 2.752a1.289 1.289 0 1 1-1.821-1.821l3.143-3.143a2.609 2.609 0 0 1 1.857-.769h8.27l5.686 9.849c.013.023.028.045.042.068l-3.177 3.177z" class="cls-1" transform="translate(0 -57.647)"/>
            <path id="XMLID_436_" d="M455.113 127.025a.806.806 0 1 0-.569-.236.813.813 0 0 0 .569.236z" class="cls-1" transform="translate(-417.656 -119.947)"/>
        </g>
    </g>
</svg>
