<svg xmlns="http://www.w3.org/2000/svg" width="32" height="32" viewBox="0 0 32 32">
    <defs>
        <style>
            .cls-1{fill:#32325d}
        </style>
    </defs>
    <g id="canvas" transform="translate(0 -.001)">
        <path id="Path_6551" d="M29.065.735a32.23 32.23 0 0 0-3.96 3.01H14.753v-1.25a.625.625 0 1 0-1.25 0v1.25H.625A.625.625 0 0 0 0 4.37v6.751a.625.625 0 0 0 1.25 0V4.995h22.435C22.23 6.307 20.626 7.838 18.9 9.566l-4.755 4.755a6.982 6.982 0 0 0-2.058 4.97.625.625 0 0 0 .625.625 6.982 6.982 0 0 0 4.97-2.058l4.755-4.755c1.728-1.728 3.259-3.332 4.571-4.787v14.558H1.25v-6.126a.625.625 0 1 0-1.25 0V23.5a.625.625 0 0 0 .625.625H6v7.251a.625.625 0 1 0 1.25 0v-3.314h6.25v3.313a.625.625 0 1 0 1.25 0v-3.313H21v3.313a.625.625 0 1 0 1.25 0v-7.251h5.38a.625.625 0 0 0 .625-.625V6.9a32.219 32.219 0 0 0 3.01-3.96c.543-.9 1.084-2.007.445-2.645s-1.749-.1-2.645.445zM7.251 26.812v-2.688H13.5v2.688zm13.753 0h-6.251v-2.688H21zM16.8 16.973a5.734 5.734 0 0 1-3.423 1.655 5.734 5.734 0 0 1 1.655-3.423l1.661-1.661 1.768 1.768zm2.545-2.545l-1.773-1.768 1.768-1.768 1.768 1.768zm2.651-2.653l-1.767-1.767c1.821-1.808 8.034-7.861 10.464-8.7-.841 2.433-6.893 8.647-8.701 10.468z" class="cls-1" data-name="Path 6551"/>
        <circle id="Ellipse_17" cx=".625" cy=".625" r=".625" class="cls-1" data-name="Ellipse 17" transform="translate(0 13.31)"/>
    </g>
</svg>
