<svg xmlns="http://www.w3.org/2000/svg" id="clipboard" width="62.853" height="80" viewBox="0 0 62.853 80">
    <defs>
        <style>
            .cls-1{fill:#32325d}
        </style>
    </defs>
    <g id="Group_5150" data-name="Group 5150">
        <g id="Group_5149" data-name="Group 5149">
            <path id="Path_7237" d="M101.89 10.482h-7.237V7.244c0-1.048-1.143-1.524-2.19-1.524h-5.619A8.518 8.518 0 0 0 78.368.006a8.666 8.666 0 0 0-8.475 5.714h-5.524c-1.048 0-2.1.476-2.1 1.524v3.238h-7.233a8.1 8.1 0 0 0-8 7.714v54.567c0 4.19 3.809 7.238 8 7.238h46.854c4.19 0 8-3.047 8-7.238V18.2a8.1 8.1 0 0 0-8-7.718zm-35.807-.953h5.238a2.1 2.1 0 0 0 1.809-1.714 5.523 5.523 0 0 1 5.238-4.285 5.428 5.428 0 0 1 5.142 4.285 2.1 2.1 0 0 0 1.9 1.714h5.428v7.618H66.083zm40 63.233c0 2.1-2.1 3.428-4.19 3.428H55.036c-2.1 0-4.19-1.333-4.19-3.428V18.2a4.285 4.285 0 0 1 4.19-3.9h7.238v4.857a2 2 0 0 0 2.1 1.809h28.088a2.1 2.1 0 0 0 2.19-1.809v-4.866h7.238a4.286 4.286 0 0 1 4.19 3.9v54.572z" class="cls-1" data-name="Path 7237" transform="translate(-47.037)"/>
            <path id="Path_7238" d="M113.887 230.9a1.9 1.9 0 0 0-2.658-.095l-6.076 5.791-2.563-2.658a1.9 1.9 0 0 0-2.658-.095 1.994 1.994 0 0 0 0 2.753l3.892 3.987a1.708 1.708 0 0 0 1.329.57 1.9 1.9 0 0 0 1.329-.57l7.4-7.025a1.8 1.8 0 0 0 .11-2.548q-.047-.054-.105-.11z" class="cls-1" data-name="Path 7238" transform="translate(-89.83 -188.31)"/>
            <path id="Path_7239" d="M222.28 256.034h-21.833a1.9 1.9 0 1 0 0 3.8h21.833a1.9 1.9 0 0 0 0-3.8z" class="cls-1" data-name="Path 7239" transform="translate(-170.87 -209.357)"/>
            <path id="Path_7240" d="M113.887 147.311a1.9 1.9 0 0 0-2.658-.095l-6.076 5.791-2.563-2.658a1.9 1.9 0 0 0-2.658-.095 1.993 1.993 0 0 0 0 2.753l3.892 3.987a1.709 1.709 0 0 0 1.329.57 1.9 1.9 0 0 0 1.329-.57l7.4-7.025a1.8 1.8 0 0 0 .11-2.548q-.047-.057-.105-.11z" class="cls-1" data-name="Path 7240" transform="translate(-89.83 -119.962)"/>
            <path id="Path_7241" d="M222.28 172.442h-21.833a1.9 1.9 0 1 0 0 3.8h21.833a1.9 1.9 0 0 0 0-3.8z" class="cls-1" data-name="Path 7241" transform="translate(-170.87 -141.005)"/>
            <path id="Path_7242" d="M113.887 314.495a1.9 1.9 0 0 0-2.658-.095l-6.076 5.791-2.563-2.658a1.9 1.9 0 0 0-2.658-.095 1.993 1.993 0 0 0 0 2.753l3.892 3.987a1.708 1.708 0 0 0 1.329.57 1.9 1.9 0 0 0 1.329-.57l7.4-7.025A1.8 1.8 0 0 0 114 314.6q-.055-.053-.113-.105z" class="cls-1" data-name="Path 7242" transform="translate(-89.83 -256.613)"/>
            <path id="Path_7243" d="M222.28 339.626h-21.833a1.9 1.9 0 1 0 0 3.8h21.833a1.9 1.9 0 0 0 0-3.8z" class="cls-1" data-name="Path 7243" transform="translate(-170.87 -277.71)"/>
        </g>
    </g>
</svg>
