<svg xmlns="http://www.w3.org/2000/svg" width="32" height="28.416" viewBox="0 0 32 28.416">
    <defs>
        <style>
            .cls-1{fill:#32325d}
        </style>
    </defs>
    <g id="continuous" transform="translate(0 -26.203)">
        <path id="Path_6552" d="M26.817 198.681a1.026 1.026 0 0 0-1.438.2l-.2.257a11 11 0 0 1-4.126 3.042l-.025.012a12.07 12.07 0 0 1-17.18-10.681v-.16H5.1a.531.531 0 0 0 .376-.907l-2.286-2.286a.531.531 0 0 0-.751 0l-2.282 2.286a.531.531 0 0 0 .376.907h1.26a14.031 14.031 0 0 0 2.186 7.45l.013.02a14.044 14.044 0 0 0 7.521 5.817 14.872 14.872 0 0 0 4.521.715 13.613 13.613 0 0 0 5.864-1.307 12.878 12.878 0 0 0 5.115-3.926 1.026 1.026 0 0 0-.196-1.439z" class="cls-1" data-name="Path 6552" transform="translate(0 -150.733)"/>
        <path id="Path_6553" d="M95.755 40.406h-1.26c0-.281-.008-.566-.025-.845a14.205 14.205 0 0 0-25.234-8.079 1.026 1.026 0 1 0 1.6 1.29q.115-.142.234-.28a12.154 12.154 0 0 1 21.357 7.19c.007.121.012.242.016.364s.005.241.005.361h-1.26a.531.531 0 0 0-.376.907l2.281 2.286a.531.531 0 0 0 .751 0l2.286-2.286a.531.531 0 0 0-.375-.908z" class="cls-1" data-name="Path 6553" transform="translate(-64.287)"/>
    </g>
</svg>
