<svg xmlns="http://www.w3.org/2000/svg" id="document" width="66.667" height="80" viewBox="0 0 66.667 80">
    <defs>
        <style>
            .cls-1{fill:#32325d}
        </style>
    </defs>
    <g id="Group_5126" data-name="Group 5126" transform="translate(15.997 57.329)">
        <g id="Group_5125" data-name="Group 5125">
            <path id="Path_7225" d="M140.01 344h-2.673a1.337 1.337 0 1 0 0 2.673h2.673a1.337 1.337 0 1 0 0-2.673z" class="cls-1" data-name="Path 7225" transform="translate(-136 -344)"/>
        </g>
    </g>
    <g id="Group_5128" data-name="Group 5128" transform="translate(23.896 57.329)">
        <g id="Group_5127" data-name="Group 5127">
            <path id="Path_7226" d="M217.414 344h-32.077a1.337 1.337 0 1 0 0 2.673h32.078a1.337 1.337 0 1 0 0-2.673z" class="cls-1" data-name="Path 7226" transform="translate(-184 -344)"/>
        </g>
    </g>
    <g id="Group_5130" data-name="Group 5130" transform="translate(15.997 49.329)">
        <g id="Group_5129" data-name="Group 5129">
            <path id="Path_7227" d="M140.01 296h-2.673a1.337 1.337 0 0 0 0 2.673h2.673a1.337 1.337 0 0 0 0-2.673z" class="cls-1" data-name="Path 7227" transform="translate(-136 -296)"/>
        </g>
    </g>
    <g id="Group_5132" data-name="Group 5132" transform="translate(23.896 49.329)">
        <g id="Group_5131" data-name="Group 5131">
            <path id="Path_7228" d="M217.414 296h-32.077a1.337 1.337 0 0 0 0 2.673h32.078a1.337 1.337 0 0 0 0-2.673z" class="cls-1" data-name="Path 7228" transform="translate(-184 -296)"/>
        </g>
    </g>
    <g id="Group_5134" data-name="Group 5134" transform="translate(15.997 41.33)">
        <g id="Group_5133" data-name="Group 5133">
            <path id="Path_7229" d="M140.01 248h-2.673a1.337 1.337 0 1 0 0 2.673h2.673a1.337 1.337 0 1 0 0-2.673z" class="cls-1" data-name="Path 7229" transform="translate(-136 -248)"/>
        </g>
    </g>
    <g id="Group_5136" data-name="Group 5136" transform="translate(23.896 41.33)">
        <g id="Group_5135" data-name="Group 5135">
            <path id="Path_7230" d="M217.414 248h-32.077a1.337 1.337 0 1 0 0 2.673h32.078a1.337 1.337 0 1 0 0-2.673z" class="cls-1" data-name="Path 7230" transform="translate(-184 -248)"/>
        </g>
    </g>
    <g id="Group_5138" data-name="Group 5138" transform="translate(15.997 33.331)">
        <g id="Group_5137" data-name="Group 5137">
            <path id="Path_7231" d="M140.01 200h-2.673a1.337 1.337 0 0 0 0 2.673h2.673a1.337 1.337 0 0 0 0-2.673z" class="cls-1" data-name="Path 7231" transform="translate(-136 -200)"/>
        </g>
    </g>
    <g id="Group_5140" data-name="Group 5140" transform="translate(23.896 33.331)">
        <g id="Group_5139" data-name="Group 5139">
            <path id="Path_7232" d="M217.414 200h-32.077a1.337 1.337 0 0 0 0 2.673h32.078a1.337 1.337 0 0 0 0-2.673z" class="cls-1" data-name="Path 7232" transform="translate(-184 -200)"/>
        </g>
    </g>
    <g id="Group_5142" data-name="Group 5142" transform="translate(15.997 25.331)">
        <g id="Group_5141" data-name="Group 5141">
            <path id="Path_7233" d="M140.01 152h-2.673a1.337 1.337 0 0 0 0 2.673h2.673a1.337 1.337 0 0 0 0-2.673z" class="cls-1" data-name="Path 7233" transform="translate(-136 -152)"/>
        </g>
    </g>
    <g id="Group_5144" data-name="Group 5144" transform="translate(23.896 25.331)">
        <g id="Group_5143" data-name="Group 5143">
            <path id="Path_7234" d="M217.414 152h-32.077a1.337 1.337 0 0 0 0 2.673h32.078a1.337 1.337 0 0 0 0-2.673z" class="cls-1" data-name="Path 7234" transform="translate(-184 -152)"/>
        </g>
    </g>
    <g id="Group_5146" data-name="Group 5146">
        <g id="Group_5145" data-name="Group 5145">
            <path id="Path_7235" d="M106.649 19.916a1.26 1.26 0 0 0-.068-.343c-.015-.043-.025-.084-.044-.125a1.333 1.333 0 0 0-.267-.391L87.6.391a1.333 1.333 0 0 0-.391-.267c-.041-.019-.083-.029-.124-.044a1.328 1.328 0 0 0-.345-.069C86.721.015 86.7 0 86.667 0H49.333A1.333 1.333 0 0 0 48 1.333v4h-6.667A1.333 1.333 0 0 0 40 6.667v72A1.333 1.333 0 0 0 41.333 80h56a1.333 1.333 0 0 0 1.333-1.333V72h6.667a1.333 1.333 0 0 0 1.333-1.333V20c.001-.029-.014-.055-.017-.084zM88 4.552l14.115 14.115H88zm8 72.781H42.667V8H48v62.667A1.333 1.333 0 0 0 49.333 72H96zm8-8H50.667V2.667h34.666V20a1.333 1.333 0 0 0 1.333 1.333H104z" class="cls-1" data-name="Path 7235" transform="translate(-40)"/>
        </g>
    </g>
    <g id="Group_5148" data-name="Group 5148" transform="translate(15.993 11.996)">
        <g id="Group_5147" data-name="Group 5147">
            <path id="Path_7236" d="M145.356 72h-8.019A1.337 1.337 0 0 0 136 73.337v8.019a1.337 1.337 0 0 0 1.337 1.337h8.019a1.337 1.337 0 0 0 1.337-1.337v-8.019A1.337 1.337 0 0 0 145.356 72zm-1.337 8.019h-5.346v-5.346h5.346z" class="cls-1" data-name="Path 7236" transform="translate(-136 -72)"/>
        </g>
    </g>
</svg>
