<svg xmlns="http://www.w3.org/2000/svg" width="819.825" height="1270.8" viewBox="0 0 819.825 1270.8">
    <defs>
        <radialGradient id="radial-gradient" cx="1.021" cy="-.144" r="1.368" gradientTransform="matrix(.523 0 0 1 .239 0)" gradientUnits="objectBoundingBox">
            <stop offset="0" stop-color="#ff6c1d"/>
            <stop offset="1" stop-color="#3b5daf"/>
        </radialGradient>
        <style>
            .cls-2,.cls-5,.cls-7{fill-rule:evenodd}.cls-2{fill:#ef8200}.cls-5{fill:#d06f10}.cls-7{fill:#003354}
        </style>
    </defs>
    <g id="Group_5416" data-name="Group 5416" transform="translate(-809.772 -4245.826)">
        <path id="Path_10030" fill="#eee" fill-rule="evenodd" d="M516.358 769.017a33.51 33.51 0 0 0-13.225 2.311A66.166 66.166 0 0 0 486.9 733.2a45.868 45.868 0 0 0 12.623-13.289c11.421-19.066 4.208-43.333-15.629-54.311-10.219-5.778-22.241-6.355-32.46-3.467C461.656 400.975 319.793 131.155 127.436 0L57.707 63.555c201.374 259.42 192.158 420.834 141 555.942-11.421-6.933-23.542-7.65-37.968-7.65-37.3-6.014-72.377 30.06-72.377 68.193v5.778a41.264 41.264 0 0 0-8.415-.578c-33.061 0-60.111 26-60.111 57.778v2.311c-7.213 1.733-22.81 94.747-28.821 98.213l414.379 6.36c4.208-7.511-21.282 69.914-17.675 62.4 18.634.578 37.269-8.667 46.887-25.422l3.607-6.933c28.252 0 52.3-17.333 61.915-41.022a39.711 39.711 0 0 0 16.831 3.467c21.039 0 38.471-16.755 38.471-36.977s-18.03-36.398-39.072-36.398z" data-name="Path 10030" opacity="0.81" transform="translate(1058.321 4603.789)"/>
        <path id="Path_10040" d="M1.746 44.225L0 68.666c10.474 22.113 86.123 73.321 111.728 83.214l-11.057-23.28 58.192 39.57-38.407-83.21 16.875 9.893C115.8 47.135 95.434 25.6 74.485 0z" class="cls-2" data-name="Path 10040" transform="translate(1128.08 4612.138)"/>
        <path id="Path_10041" fill="#fff57e" fill-rule="evenodd" d="M.038 40.734C-1.708 38.988 57.647 81.468 57.065 80.3 55.9 79.14 49.5 64.011 49.5 64.011l41.316 31.423L64.63 50.627S82.67 62.265 82.088 61.1 47.755 0 47.755 0z" data-name="Path 10041" transform="translate(1129.992 4619.604)"/>
        <path id="Path_10042" fill="#3e3938" fill-rule="evenodd" d="M16.294 90.779l83.214-72.158L82.05 0 0 69.83z" data-name="Path 10042" transform="translate(1105.554 4592.848)"/>
        <path id="Path_10043" d="M0 8.772c34.915-11.638 115.8-32.587 143.733 98.343 0 0-62.847-44.807-114.055-26.768z" class="cls-2" data-name="Path 10043" transform="translate(1110.352 4463.412)"/>
        <path id="Path_10044" d="M16.227 0C-.066 32.587-32.653 109.4 93.04 155.953c0 0-35.5-68.666-9.893-116.383z" class="cls-2" data-name="Path 10044" transform="translate(981.958 4572.784)"/>
        <path id="Path_10045" d="M126.857 70.477C124.53 68.731 66.338 28 16.875 42.545L0 5.885c27.932-8.147 89.614-20.949 126.857 64.592z" class="cls-5" data-name="Path 10045" transform="translate(1127.864 4499.747)"/>
        <path id="Path_10046" d="M57.146 133.84a.57.57 0 0 1 .582.582S23.978 69.248 46.09 22.113L11.757 0C.119 26.186-21.412 84.959 57.146 133.84z" class="cls-5" data-name="Path 10046" transform="translate(977.65 4594.278)"/>
        <path id="Path_10047" fill="#eee" fill-rule="evenodd" d="M260.116 370.679c-55.282-22.695-105.326-54.118-172.828-132.094C44.807 189.7 17.457 134.422 0 85.541L98.925 0c45.971 24.44 96.6 59.937 138.5 108.818 67.5 78.558 91.361 132.676 105.908 190.286l-58.195 50.626z" data-name="Path 10047" transform="translate(843.268 4299.91)"/>
        <path id="Path_10048" d="M100.671 0c2.91 9.311 6.4 19.2 8.729 27.932l-82.632 72.157C18.039 96.6 8.147 91.942 0 87.869z" class="cls-7" data-name="Path 10048" transform="translate(1082.477 4566.957)"/>
        <path id="Path_10049" d="M32.005 137.332C4.073 61.1 0 0 0 0s59.937 13.384 131.513 51.79z" class="cls-7" data-name="Path 10049" transform="translate(809.782 4248.699)"/>
        <path id="Path_10050" fill="#bb714e" fill-rule="evenodd" d="M64.076 56.872a332.612 332.612 0 0 1 46.553 70.412S77.46 106.335 47.2 70.838C16.941 35.923-4.008 4.5.648.426c5.237-4.073 33.168 21.531 63.428 56.446z" data-name="Path 10050" transform="translate(1053.684 4521.632)"/>
        <path id="Path_10051" fill="#fefefe" fill-rule="evenodd" d="M0 43.062L49.463 0c45.971 24.44 96.6 59.937 138.5 108.818 67.5 78.558 91.361 132.677 105.908 190.286l-41.9 36.079z" data-name="Path 10051" transform="translate(892.132 4298.479)"/>
        <path id="Path_10052" fill="#004e80" fill-rule="evenodd" d="M50.626 0c2.91 9.311 6.4 19.2 8.729 27.932l-41.316 35.5L0 43.644z" data-name="Path 10052" transform="translate(1132.514 4566.082)"/>
        <path id="Path_10053" fill="#f1f1f1" fill-rule="evenodd" d="M0 0s59.937 13.384 131.513 51.79L82.05 94.852z" data-name="Path 10053" transform="translate(809.772 4248.121)"/>
        <path id="Path_10054" fill="#a25136" fill-rule="evenodd" d="M63.429 56.872a332.616 332.616 0 0 1 46.553 70.412L0 .426c5.237-4.073 33.169 21.531 63.429 56.446z" data-name="Path 10054" transform="translate(1054.332 4521.621)"/>
        <path id="Path_10055" fill="#dedede" fill-rule="evenodd" d="M13.816 93.538a56.366 56.366 0 0 0 79.722 5.819c23.862-20.367 26.186-55.864 5.819-79.722a56.522 56.522 0 0 0-85.541 73.9z" data-name="Path 10055" transform="translate(902.681 4360.723)"/>
        <path id="Path_10056" fill="#008cd6" fill-rule="evenodd" d="M79.554 84.7c20.367-17.46 22.113-47.72 5.237-68.087C67.334-3.754 37.074-5.5 16.707 11.958S-5.406 59.675 11.47 80.042c16.876 19.785 47.717 22.113 68.084 4.658z" data-name="Path 10056" transform="translate(911.58 4369.409)"/>
        <path id="Path_10057" fill="#0d98d7" fill-rule="evenodd" d="M23.858 0a82.671 82.671 0 0 1-1.164 63.429A82.279 82.279 0 0 1 1.745 91.942C1.164 92.524.582 93.106 0 93.106c13.384 2.328 27.932-1.746 38.988-11.056C59.355 64.592 61.1 34.333 44.225 13.966A42.971 42.971 0 0 0 23.858 0z" data-name="Path 10057" transform="translate(951.604 4371.361)"/>
        <path id="Path_9948" fill="url(#radial-gradient)" fill-rule="evenodd" d="M699.7 231c-6.4-11.8-64.4-44.3-89.3-40.9s2.144 56.351-47.4 45.6-41.672-11.722-74.042-9.259S441.9 262.2 429.3 282.9s-68.3-6.7-102.8 11-26.1 58.6-43.9 76.9-33 .1-58.6 16.8-43.3 73.5-43.3 73.5l519-4V231z" data-name="Path 9948" opacity="0.17" transform="translate(725.3 4987)"/>
    </g>
</svg>
