<svg xmlns="http://www.w3.org/2000/svg" width="28.003" height="32" viewBox="0 0 28.003 32">
    <defs>
        <style>
            .cls-1{fill:#32325d}
        </style>
    </defs>
    <g id="hand-washing" transform="translate(-31.977)">
        <path id="Path_6564" d="M132.48 8a4.475 4.475 0 0 0-2.5.76V4a3.006 3.006 0 0 0-4.473-2.615 3 3 0 0 0-5.423.826A3 3 0 0 0 116 4.674a3 3 0 0 0-4.022 2.826v10.08a1 1 0 0 0 2 0V7.5a1 1 0 1 1 2 0V14a1 1 0 0 0 2 0V5a1 1 0 1 1 2 0v9a1 1 0 0 0 2 0V3a1 1 0 1 1 2 0v11a1 1 0 1 0 2 0V4a1 1 0 1 1 2 0v13.061a8.082 8.082 0 0 0-6.987 6.773 1 1 0 1 0 1.973.329A6.064 6.064 0 0 1 128.98 19a1 1 0 0 0 1-1v-5.5a2.5 2.5 0 0 1 2.5-2.5.5.5 0 0 1 .5.5v10a9.5 9.5 0 0 1-15.337 7.5 1 1 0 1 0-1.23 1.577A11.5 11.5 0 0 0 134.98 20.5v-10a2.5 2.5 0 0 0-2.5-2.5z" class="cls-1" data-name="Path 6564" transform="translate(-75)"/>
        <path id="Path_6565" d="M43.978 317.954a1 1 0 0 0-1-1 4 4 0 0 1-4-4 1 1 0 0 0-2 0 4 4 0 0 1-4 4 1 1 0 0 0 0 2 4 4 0 0 1 4 4 1 1 0 1 0 2 0 4 4 0 0 1 4-4 1 1 0 0 0 1-1zm-6 1.684a6.051 6.051 0 0 0-1.681-1.681 6.085 6.085 0 0 0 1.684-1.682 6.084 6.084 0 0 0 1.68 1.68 6.084 6.084 0 0 0-1.686 1.682z" class="cls-1" data-name="Path 6565" transform="translate(0 -292.455)"/>
    </g>
</svg>
