<svg xmlns="http://www.w3.org/2000/svg" width="106.761" height="23.964" viewBox="0 0 106.761 23.964">
  <g id="Group_4450" data-name="Group 4450" transform="translate(-0.001 0)">
    <path id="Path_6821" data-name="Path 6821" d="M180.318,23.145a4.242,4.242,0,0,0-.959-1.487,4.179,4.179,0,0,0-1.478-.94,5.741,5.741,0,0,0-3.829,0,4.27,4.27,0,0,0-1.491.94,4.181,4.181,0,0,0-.967,1.487,5.36,5.36,0,0,0-.342,1.966,5.441,5.441,0,0,0,.342,1.983,4.207,4.207,0,0,0,.967,1.5,4.284,4.284,0,0,0,1.491.95,5.317,5.317,0,0,0,1.921.333,5.247,5.247,0,0,0,1.907-.333,4.209,4.209,0,0,0,1.478-.95,4.276,4.276,0,0,0,.959-1.5,5.465,5.465,0,0,0,.342-1.983A5.361,5.361,0,0,0,180.318,23.145Zm-2.946,4.02a1.562,1.562,0,0,1-1.4.67,1.6,1.6,0,0,1-1.429-.67,3.672,3.672,0,0,1-.453-2.036,3.65,3.65,0,0,1,.453-2.032,1.605,1.605,0,0,1,1.429-.666,1.566,1.566,0,0,1,1.4.666,3.678,3.678,0,0,1,.449,2.032A3.7,3.7,0,0,1,177.372,27.166Z" transform="translate(-73.898 -8.691)" fill="#2d2d2d"/>
    <path id="Path_6822" data-name="Path 6822" d="M166.486,14.98a1.463,1.463,0,0,1-.132.617,1.623,1.623,0,0,1-.364.506,1.785,1.785,0,0,1-.537.346,1.664,1.664,0,0,1-.652.128,1.545,1.545,0,0,1-.63-.128,1.779,1.779,0,0,1-.519-.346,1.6,1.6,0,0,1-.355-.506,1.5,1.5,0,0,1-.128-.617,1.545,1.545,0,0,1,.128-.63,1.632,1.632,0,0,1,.355-.514,1.667,1.667,0,0,1,.519-.346,1.594,1.594,0,0,1,.63-.124,1.724,1.724,0,0,1,.652.124,1.673,1.673,0,0,1,.9.861A1.513,1.513,0,0,1,166.486,14.98Z" transform="translate(-70.409 -5.66)" fill="#2d2d2d"/>
    <rect id="Rectangle_3650" data-name="Rectangle 3650" width="2.751" height="9.203" transform="translate(93.006 11.841)" fill="#2d2d2d"/>
    <path id="Path_6823" data-name="Path 6823" d="M155.143,33.225a1.47,1.47,0,0,1,.12-.595,1.513,1.513,0,0,1,.328-.479,1.568,1.568,0,0,1,.493-.323,1.587,1.587,0,0,1,.621-.12,1.554,1.554,0,0,1,.612.12,1.631,1.631,0,0,1,.5.323,1.47,1.47,0,0,1,.453,1.074,1.5,1.5,0,0,1-.12.6,1.464,1.464,0,0,1-.333.484,1.55,1.55,0,0,1-.5.319,1.6,1.6,0,0,1-.612.115,1.627,1.627,0,0,1-.621-.115,1.5,1.5,0,0,1-.493-.319,1.514,1.514,0,0,1-.448-1.084Z" transform="translate(-66.947 -13.575)" fill="#2d2d2d"/>
    <path id="Path_6824" data-name="Path 6824" d="M146.4,25.581a.371.371,0,0,0,.191-.16.8.8,0,0,0,.1-.31,3.908,3.908,0,0,0,.027-.507,4.872,4.872,0,0,0-.306-1.779,3.757,3.757,0,0,0-.852-1.326,3.632,3.632,0,0,0-1.3-.825,5.091,5.091,0,0,0-3.567.08,4.245,4.245,0,0,0-2.335,2.431,4.866,4.866,0,0,0-.315,1.748,5.775,5.775,0,0,0,.368,2.147,4.422,4.422,0,0,0,1,1.545,4.158,4.158,0,0,0,1.481.936,5.162,5.162,0,0,0,1.815.316,7.8,7.8,0,0,0,.99-.067,5.478,5.478,0,0,0,1.038-.24,4.722,4.722,0,0,0,1.011-.479,4.078,4.078,0,0,0,.919-.794l-.8-.985a.568.568,0,0,0-.5-.239,1.033,1.033,0,0,0-.475.115c-.151.077-.317.163-.5.258a4.2,4.2,0,0,1-.617.257,2.607,2.607,0,0,1-.825.115,2.085,2.085,0,0,1-1.464-.519,2.593,2.593,0,0,1-.7-1.672h5.307A.868.868,0,0,0,146.4,25.581Zm-5.586-1.553a2.34,2.34,0,0,1,.586-1.291,1.658,1.658,0,0,1,1.234-.449,1.713,1.713,0,0,1,.754.151,1.4,1.4,0,0,1,.5.395,1.536,1.536,0,0,1,.275.555,2.452,2.452,0,0,1,.084.639Z" transform="translate(-59.563 -8.69)" fill="#2d2d2d"/>
    <path id="Path_6825" data-name="Path 6825" d="M129.257,27.957a3.239,3.239,0,0,1-1.158-.191,2.234,2.234,0,0,1-1.362-1.388,3.283,3.283,0,0,1-.178-1.11V20.511h-.781a.523.523,0,0,1-.364-.138.517.517,0,0,1-.151-.4V18.9l1.464-.284.541-2.246a.547.547,0,0,1,.6-.426h1.438V18.63h2.236v1.882h-2.236v4.571a.862.862,0,0,0,.155.528.524.524,0,0,0,.448.208.87.87,0,0,0,.253-.031.985.985,0,0,0,.177-.07c.051-.027.1-.051.142-.071a.359.359,0,0,1,.155-.031.317.317,0,0,1,.2.058.708.708,0,0,1,.155.181l.835,1.3a3.792,3.792,0,0,1-1.2.6A4.756,4.756,0,0,1,129.257,27.957Z" transform="translate(-54.053 -6.771)" fill="#2d2d2d"/>
    <path id="Path_6826" data-name="Path 6826" d="M116.47,23.145a4.232,4.232,0,0,0-.958-1.487,4.179,4.179,0,0,0-1.478-.94,5.314,5.314,0,0,0-1.908-.329,5.37,5.37,0,0,0-1.921.329,4.268,4.268,0,0,0-1.491.94,4.19,4.19,0,0,0-.968,1.487,5.371,5.371,0,0,0-.342,1.966,5.453,5.453,0,0,0,.342,1.983,4.216,4.216,0,0,0,.968,1.5,4.282,4.282,0,0,0,1.491.95,5.321,5.321,0,0,0,1.921.333,5.249,5.249,0,0,0,1.908-.333,4.209,4.209,0,0,0,1.478-.95,4.267,4.267,0,0,0,.958-1.5,5.452,5.452,0,0,0,.342-1.983A5.373,5.373,0,0,0,116.47,23.145Zm-2.946,4.02a1.562,1.562,0,0,1-1.4.67,1.6,1.6,0,0,1-1.429-.67,3.672,3.672,0,0,1-.453-2.036A3.649,3.649,0,0,1,110.7,23.1a1.6,1.6,0,0,1,1.429-.666,1.566,1.566,0,0,1,1.4.666,3.684,3.684,0,0,1,.448,2.032A3.708,3.708,0,0,1,113.523,27.166Z" transform="translate(-46.346 -8.691)" fill="#2d2d2d"/>
    <path id="Path_6827" data-name="Path 6827" d="M81.615,29.735v-9.2h1.7a.76.76,0,0,1,.43.115.618.618,0,0,1,.244.346l.151.5a5.154,5.154,0,0,1,.479-.439,3.055,3.055,0,0,1,.537-.346,3.018,3.018,0,0,1,.621-.231,2.973,2.973,0,0,1,.732-.084,2.159,2.159,0,0,1,1.38.43,2.681,2.681,0,0,1,.829,1.149,2.728,2.728,0,0,1,.563-.728,3.031,3.031,0,0,1,.719-.488,3.483,3.483,0,0,1,.817-.275,4.235,4.235,0,0,1,.856-.089,3.889,3.889,0,0,1,1.4.235,2.669,2.669,0,0,1,1.025.683,2.942,2.942,0,0,1,.626,1.1,4.75,4.75,0,0,1,.213,1.478v5.848H92.194V23.887q0-1.429-1.225-1.429a1.26,1.26,0,0,0-.928.368,1.437,1.437,0,0,0-.368,1.061v5.848H86.923V23.887a1.575,1.575,0,0,0-.31-1.11,1.22,1.22,0,0,0-.914-.319,1.538,1.538,0,0,0-.705.169,2.55,2.55,0,0,0-.625.453v6.656Z" transform="translate(-35.218 -8.691)" fill="#2d2d2d"/>
    <path id="Path_6828" data-name="Path 6828" d="M71.933,25.581a.372.372,0,0,0,.19-.16.8.8,0,0,0,.1-.31,3.911,3.911,0,0,0,.027-.507,4.872,4.872,0,0,0-.306-1.779,3.766,3.766,0,0,0-.852-1.326,3.627,3.627,0,0,0-1.3-.825,5.091,5.091,0,0,0-3.567.08,4.243,4.243,0,0,0-2.334,2.431,4.854,4.854,0,0,0-.315,1.748,5.775,5.775,0,0,0,.368,2.147,4.42,4.42,0,0,0,1,1.545,4.16,4.16,0,0,0,1.482.936,5.161,5.161,0,0,0,1.815.316,7.8,7.8,0,0,0,.989-.067,5.483,5.483,0,0,0,1.039-.24,4.725,4.725,0,0,0,1.012-.479A4.078,4.078,0,0,0,72.2,28.3l-.8-.985a.568.568,0,0,0-.5-.239,1.031,1.031,0,0,0-.475.115c-.151.077-.317.163-.5.258a4.164,4.164,0,0,1-.617.257,2.61,2.61,0,0,1-.825.115,2.086,2.086,0,0,1-1.464-.519,2.593,2.593,0,0,1-.7-1.672h5.307A.867.867,0,0,0,71.933,25.581Zm-5.586-1.553a2.34,2.34,0,0,1,.586-1.291,1.657,1.657,0,0,1,1.234-.449,1.716,1.716,0,0,1,.754.151,1.4,1.4,0,0,1,.5.395,1.545,1.545,0,0,1,.275.555,2.425,2.425,0,0,1,.084.639Z" transform="translate(-27.431 -8.69)" fill="#2d2d2d"/>
    <path id="Path_6829" data-name="Path 6829" d="M51.735,29.708v-9.2h1.633a1.381,1.381,0,0,1,.342.036.611.611,0,0,1,.231.111.464.464,0,0,1,.142.2,1.837,1.837,0,0,1,.084.3l.151.861a4.5,4.5,0,0,1,1.136-1.234,2.308,2.308,0,0,1,1.376-.453,1.585,1.585,0,0,1,1.012.3l-.355,2.024a.4.4,0,0,1-.142.262.481.481,0,0,1-.284.076,1.88,1.88,0,0,1-.355-.04,2.742,2.742,0,0,0-.514-.04,1.891,1.891,0,0,0-1.7,1.153V29.71h-2.75Z" transform="translate(-22.324 -8.664)" fill="#2d2d2d"/>
    <path id="Path_6830" data-name="Path 6830" d="M37.425,32.23a.785.785,0,0,1-.87.533H34.5l1.775-3.728L32.6,20.64h2.431a.774.774,0,0,1,.5.142.759.759,0,0,1,.248.337l1.509,3.967a8.713,8.713,0,0,1,.346,1.1q.089-.284.2-.559t.2-.559l1.367-3.949a.674.674,0,0,1,.28-.342.8.8,0,0,1,.448-.138h2.219Z" transform="translate(-14.066 -8.799)" fill="#2d2d2d"/>
    <path id="Path_6831" data-name="Path 6831" d="M25.412,25.581a.373.373,0,0,0,.191-.16.8.8,0,0,0,.1-.31,3.911,3.911,0,0,0,.027-.507,4.873,4.873,0,0,0-.306-1.779,3.758,3.758,0,0,0-.852-1.326,3.627,3.627,0,0,0-1.3-.825,5.091,5.091,0,0,0-3.567.08,4.242,4.242,0,0,0-2.334,2.431,4.866,4.866,0,0,0-.315,1.748,5.763,5.763,0,0,0,.368,2.147,4.42,4.42,0,0,0,1,1.545,4.16,4.16,0,0,0,1.482.936,5.16,5.16,0,0,0,1.815.316,7.8,7.8,0,0,0,.99-.067,5.483,5.483,0,0,0,1.039-.24,4.721,4.721,0,0,0,1.011-.479,4.078,4.078,0,0,0,.919-.794l-.8-.985a.568.568,0,0,0-.5-.239,1.031,1.031,0,0,0-.475.115c-.151.077-.317.163-.5.258a4.164,4.164,0,0,1-.617.257,2.61,2.61,0,0,1-.825.115A2.086,2.086,0,0,1,20.5,27.3a2.593,2.593,0,0,1-.7-1.672h5.307A.868.868,0,0,0,25.412,25.581Zm-5.586-1.553a2.34,2.34,0,0,1,.586-1.291,1.658,1.658,0,0,1,1.234-.449,1.713,1.713,0,0,1,.754.151,1.4,1.4,0,0,1,.5.395,1.545,1.545,0,0,1,.275.555,2.425,2.425,0,0,1,.084.639Z" transform="translate(-7.356 -8.69)" fill="#2d2d2d"/>
    <path id="Path_6832" data-name="Path 6832" d="M0,26.743V13.458H2.752v4.89A4.473,4.473,0,0,1,3.83,17.66,3.364,3.364,0,0,1,5.219,17.4a3.223,3.223,0,0,1,1.335.262,2.764,2.764,0,0,1,.981.728,3.145,3.145,0,0,1,.6,1.109,4.59,4.59,0,0,1,.2,1.4v5.848H5.592V20.9a1.613,1.613,0,0,0-.31-1.052,1.114,1.114,0,0,0-.914-.377,1.908,1.908,0,0,0-.852.2,3.294,3.294,0,0,0-.763.524v6.558Z" transform="translate(0 -5.699)" fill="#2d2d2d"/>
    <path id="Path_6833" data-name="Path 6833" d="M166.376,9.765a.6.6,0,1,1-.853.853,1.81,1.81,0,0,0-2.562,0,.6.6,0,0,1-.854-.854,3.02,3.02,0,0,1,4.269,0Z" transform="translate(-69.876 -3.725)" fill="#2d2d2d"/>
    <path id="Path_6834" data-name="Path 6834" d="M166.376,9.765a.6.6,0,1,1-.853.853,1.81,1.81,0,0,0-2.562,0,.6.6,0,0,1-.854-.854,3.02,3.02,0,0,1,4.269,0Z" transform="translate(-69.876 -3.725)" fill="none" stroke="#404040" stroke-miterlimit="10" stroke-width="0.5"/>
    <path id="Path_6835" data-name="Path 6835" d="M166.8,6.167a.6.6,0,0,1,0,.853.623.623,0,0,1-.869,0,4.359,4.359,0,0,0-6.079,0,.622.622,0,0,1-.868,0,.6.6,0,0,1,0-.853A5.6,5.6,0,0,1,166.8,6.167Z" transform="translate(-68.526 -1.868)" fill="#2d2d2d"/>
    <path id="Path_6836" data-name="Path 6836" d="M166.8,6.167a.6.6,0,0,1,0,.853.623.623,0,0,1-.869,0,4.359,4.359,0,0,0-6.079,0,.622.622,0,0,1-.868,0,.6.6,0,0,1,0-.853A5.6,5.6,0,0,1,166.8,6.167Z" transform="translate(-68.526 -1.868)" fill="none" stroke="#404040" stroke-miterlimit="10" stroke-width="0.5"/>
    <path id="Path_6837" data-name="Path 6837" d="M167.211,2.545a.6.6,0,0,1,0,.853.618.618,0,0,1-.865,0,6.785,6.785,0,0,0-9.5,0,.618.618,0,0,1-.865,0,.6.6,0,0,1,0-.853A8.022,8.022,0,0,1,167.211,2.545Z" transform="translate(-67.23 0)" fill="#2d2d2d"/>
    <path id="Path_6838" data-name="Path 6838" d="M167.211,2.545a.6.6,0,0,1,0,.853.618.618,0,0,1-.865,0,6.785,6.785,0,0,0-9.5,0,.618.618,0,0,1-.865,0,.6.6,0,0,1,0-.853A8.022,8.022,0,0,1,167.211,2.545Z" transform="translate(-67.23 0)" fill="none" stroke="#404040" stroke-miterlimit="10" stroke-width="0.5"/>
  </g>
</svg>
