<svg xmlns="http://www.w3.org/2000/svg" width="81.437" height="24" viewBox="0 0 81.437 24">
    <defs>
        <style>
            .cls-2{opacity:.2}
        </style>
    </defs>
    <g id="Group_5373" data-name="Group 5373" opacity="0.817">
        <circle id="Ellipse_1" cx="1.58" cy="1.58" r="1.58" data-name="Ellipse 1" transform="translate(27.006 9.33)"/>
        <path id="Path_1" d="M206.893 373.272a6.1 6.1 0 0 0-2.336.463l-.018.006-.094.038c-.062.026-.122.052-.178.079-.142.067-.267.136-.38.2a6.207 6.207 0 0 0-.933.647c-.238.114-.469.085-.869-.227-.154-.15-.315-.294-.483-.43l-.009-.009a5.264 5.264 0 0 0-2.213-1.194 6.867 6.867 0 0 0-1.859-.322c-.086 0-.134-.006-.134-.006h-.114a6.877 6.877 0 0 0 0 13.755h.115s.057 0 .157-.008a6.85 6.85 0 0 0 1.8-.31 5.3 5.3 0 0 0 2.253-1.205l.019-.019c.166-.135.326-.275.479-.425.4-.31.63-.336.868-.22a6.14 6.14 0 0 0 .9.627 4.119 4.119 0 0 0 .682.337l.018.007a6.125 6.125 0 1 0 2.336-11.788zm-9.616 11.339a5.214 5.214 0 1 1 5.214-5.214 5.214 5.214 0 0 1-5.214 5.214zm9.616-2.3a2.915 2.915 0 1 1 2.916-2.915 2.915 2.915 0 0 1-2.916 2.916z" data-name="Path 1" transform="translate(-178.308 -368.488)"/>
        <path id="Path_2" d="M79.949 334.226a1.756 1.756 0 0 0-.7-.557 9.879 9.879 0 0 0-1.232-.474 7.515 7.515 0 0 0-1.225-.277 1.829 1.829 0 0 0-.934.039q-.308.131-.4.776-.221 1.711-.4 3.8t-.383 4.215q-.73.159-1.508.325t-1.58.374l.29-3.3q.135-1.541.295-2.69a3.674 3.674 0 0 0 .017-.457.7.7 0 0 0-.1-.343 1 1 0 0 0-.275-.279 2.744 2.744 0 0 0-.5-.268 7.625 7.625 0 0 0-1.314-.482 11.289 11.289 0 0 0-1.395-.294 1.255 1.255 0 0 0-.867.02q-.275.156-.346.8-.01 1.663.031 3.625t.074 3.935q.033 1.973.025 3.794t-.116 3.2a.981.981 0 0 0 .185.776 1.6 1.6 0 0 0 .708.408 3.605 3.605 0 0 0 .931.228q.533.065 1.037.135a1.07 1.07 0 0 0 .672-.072.647.647 0 0 0 .184-.46q.028-.953.061-2.154t.161-2.583q.8-.247 1.568-.462t1.571-.442q-.06 1.155-.09 2.089t-.012 1.643a.922.922 0 0 0 .414 1 3.872 3.872 0 0 0 1.321.4q.4.044.753.085a2.909 2.909 0 0 0 .605.016.724.724 0 0 0 .387-.132.39.39 0 0 0 .1-.379q.168-1.664.405-3.615t.511-3.926q.274-1.975.57-3.855t.563-3.4a1.239 1.239 0 0 0-.062-.782z" data-name="Path 2" transform="translate(-67.387 -332.743)"/>
        <path id="Path_3" d="M862.652 333.144q-.12.864-.222 2.023t-.218 2.484l-.212 2.961q-.074.868-.095 1.637l-.046 1.619a.487.487 0 0 1-.139.346.8.8 0 0 1-.505.055q-.379-.052-.78-.1a2.7 2.7 0 0 1-.7-.172 1.2 1.2 0 0 1-.533-.307.738.738 0 0 1-.139-.583q.081-1.037.087-2.406t-.018-2.852q-.025-1.483-.055-2.959t-.023-2.726c.035-.322.122-.522.26-.6a.943.943 0 0 1 .653-.015 8.4 8.4 0 0 1 1.049.22 5.772 5.772 0 0 1 .993.362 2.057 2.057 0 0 1 .377.2.734.734 0 0 1 .207.209.522.522 0 0 1 .073.258 2.739 2.739 0 0 1-.014.346z" data-name="Path 3" transform="translate(-781.229 -331.501)"/>
        <path id="Path_4" d="M236.539 415.736a2.915 2.915 0 1 1-2.915-2.916 2.915 2.915 0 0 1 2.915 2.916z" data-name="Path 4" transform="translate(-214.655 -404.826)"/>
        <path id="Path_5" d="M745.6 387.787l-.014-.009-.015-.008a1.541 1.541 0 0 0-.773-.207 1.7 1.7 0 0 0-.4.049 1.49 1.49 0 0 0-.965.712c-.4.661-.759 1.278-1.068 1.834s-.659 1.2-1.054 1.946-.8 1.522-1.217 2.341c-.169.337-.335.674-.494 1q-.1-.315-.2-.64c-.233-.758-.448-1.513-.638-2.243s-.349-1.406-.476-2.029a7.514 7.514 0 0 1-.183-1.427 1.562 1.562 0 1 0-3.123 0 26.487 26.487 0 0 0 1.5 6.8c.279.884.544 1.7.787 2.419.2.592.356 1.045.476 1.373a14.312 14.312 0 0 0-1.109 4.77 1.562 1.562 0 1 0 3.123 0 7.108 7.108 0 0 1 .172-1.27 17.124 17.124 0 0 1 .756-2.448c.254-.687.566-1.449.929-2.266s.785-1.707 1.255-2.646c.393-.786.789-1.547 1.177-2.262.4-.745.745-1.363 1.043-1.892s.651-1.138 1.035-1.782a1.551 1.551 0 0 0 .157-1.164 1.577 1.577 0 0 0-.681-.951z" data-name="Path 5" transform="translate(-669.355 -382.037)"/>
        <path id="Path_6" d="M858.141 474.5a1.545 1.545 0 1 0-.452 1.109 1.537 1.537 0 0 0 .452-1.109z" data-name="Path 6" transform="translate(-777.591 -459.032)"/>
        <path id="Path_7" d="M432.262 389.175a1.549 1.549 0 0 0-.493-1.145 1.622 1.622 0 0 0-1.175-.483 2.585 2.585 0 0 0-1.15.28 3.709 3.709 0 0 0-1.078.829 2.237 2.237 0 0 0-.682-.789 1.553 1.553 0 0 0-.885-.259 1.4 1.4 0 0 0-1.236.585 3.2 3.2 0 0 0-.4 1.8v6.6a3.23 3.23 0 0 0 .4 1.8 1.595 1.595 0 0 0 2.477 0 3.2 3.2 0 0 0 .407-1.8v-3.419a2.918 2.918 0 0 1 .2-1.307 1.789 1.789 0 0 1 .824-.656q.325-.153.977-.387 1.814-.662 1.814-1.649z" data-name="Path 7" transform="translate(-389.99 -382.037)"/>
        <path id="Path_8" d="M622.6 387.787l-.014-.009-.015-.008a1.541 1.541 0 0 0-.773-.207 1.7 1.7 0 0 0-.4.049 1.491 1.491 0 0 0-.965.712c-.4.661-.759 1.278-1.068 1.834s-.659 1.2-1.054 1.946-.8 1.522-1.217 2.341c-.169.337-.335.674-.494 1q-.1-.315-.2-.64c-.233-.758-.448-1.513-.638-2.243s-.349-1.406-.476-2.029a7.519 7.519 0 0 1-.183-1.427 1.562 1.562 0 1 0-3.123 0 26.487 26.487 0 0 0 1.5 6.8c.279.884.544 1.7.787 2.419.2.592.356 1.045.476 1.373a14.31 14.31 0 0 0-1.109 4.77 1.562 1.562 0 1 0 3.124 0 7.115 7.115 0 0 1 .172-1.27 17.139 17.139 0 0 1 .755-2.448c.254-.687.567-1.449.929-2.266s.785-1.707 1.255-2.646c.393-.786.789-1.547 1.177-2.262.4-.745.745-1.363 1.044-1.892s.651-1.138 1.035-1.782a1.551 1.551 0 0 0 .157-1.164 1.577 1.577 0 0 0-.682-.951z" data-name="Path 8" transform="translate(-558.452 -382.037)"/>
        <path id="Path_9" d="M503.67 387.632a1.375 1.375 0 0 0-1.221-.58 1.566 1.566 0 0 0-.886.264 2.164 2.164 0 0 0-.681.783 3.132 3.132 0 0 0-1.144-.886 3.646 3.646 0 0 0-1.48-.284 4.658 4.658 0 0 0-3.622 1.678 6.01 6.01 0 0 0-1.485 4.132 6.091 6.091 0 0 0 1.439 4.141 4.516 4.516 0 0 0 3.546 1.658 3.693 3.693 0 0 0 1.541-.32 3.289 3.289 0 0 0 1.206-.931 2.106 2.106 0 0 0 .641.865 1.529 1.529 0 0 0 .926.274 1.373 1.373 0 0 0 1.216-.59 3.237 3.237 0 0 0 .4-1.8v-6.6a3.235 3.235 0 0 0-.396-1.804zm-3.48 7.005a1.846 1.846 0 0 1-1.516.748 1.874 1.874 0 0 1-1.537-.738 3.027 3.027 0 0 1-.59-1.948 2.9 2.9 0 0 1 .595-1.9 1.891 1.891 0 0 1 1.532-.727 1.864 1.864 0 0 1 1.511.732 2.905 2.905 0 0 1 .595 1.892 3.036 3.036 0 0 1-.59 1.941z" data-name="Path 9" transform="translate(-451.296 -381.481)"/>
        <path id="Path_10" d="M623.137 389.91c-.383.644-.73 1.241-1.035 1.782s-.639 1.147-1.043 1.892c-.388.715-.784 1.476-1.177 2.262-.469.939-.891 1.83-1.255 2.646s-.675 1.579-.929 2.266a17.139 17.139 0 0 0-.755 2.448 7.115 7.115 0 0 0-.172 1.27 1.562 1.562 0 1 1-3.124 0 14.31 14.31 0 0 1 1.109-4.77c-.12-.328-.277-.781-.476-1.373-.243-.721-.508-1.535-.787-2.419a26.487 26.487 0 0 1-1.5-6.8 1.562 1.562 0 1 1 3.123 0 7.519 7.519 0 0 0 .183 1.427c.127.623.288 1.306.476 2.029s.4 1.485.638 2.243q.1.325.2.64c.16-.329.326-.666.494-1 .417-.819.826-1.605 1.217-2.341s.75-1.4 1.054-1.946.668-1.174 1.068-1.834a1.491 1.491 0 0 1 .965-.712 1.7 1.7 0 0 1 .4-.049 1.541 1.541 0 0 1 .773.207l.015.008.014.009a1.577 1.577 0 0 1 .69.959 1.551 1.551 0 0 1-.166 1.156z" class="cls-2" data-name="Path 10" transform="translate(-558.452 -382.037)"/>
        <path id="Path_11" d="M746.131 389.91c-.384.644-.73 1.241-1.035 1.782s-.639 1.147-1.043 1.892c-.388.715-.783 1.476-1.177 2.262-.469.939-.892 1.83-1.255 2.646s-.675 1.579-.929 2.266a17.113 17.113 0 0 0-.755 2.448 7.105 7.105 0 0 0-.172 1.27 1.562 1.562 0 1 1-3.124 0 14.309 14.309 0 0 1 1.109-4.77c-.12-.328-.277-.781-.476-1.373-.243-.721-.508-1.535-.787-2.419a26.492 26.492 0 0 1-1.5-6.8 1.562 1.562 0 1 1 3.123 0 7.525 7.525 0 0 0 .183 1.427c.127.623.288 1.306.476 2.029s.4 1.485.638 2.243q.1.325.2.64c.16-.329.325-.666.494-1 .417-.819.826-1.605 1.217-2.341s.75-1.4 1.054-1.946.668-1.174 1.068-1.834a1.49 1.49 0 0 1 .965-.712 1.7 1.7 0 0 1 .4-.049 1.541 1.541 0 0 1 .773.207l.015.008.014.009a1.578 1.578 0 0 1 .689.959 1.55 1.55 0 0 1-.165 1.156z" class="cls-2" data-name="Path 11" transform="translate(-669.356 -382.037)"/>
        <path id="Path_12" d="M79.949 334.226a1.756 1.756 0 0 0-.7-.557 9.9 9.9 0 0 0-1.232-.474 7.515 7.515 0 0 0-1.225-.277 1.829 1.829 0 0 0-.934.039q-.308.131-.4.776-.221 1.711-.4 3.8t-.383 4.215q-.73.159-1.508.325t-1.58.374l.29-3.3q.135-1.541.295-2.69a3.674 3.674 0 0 0 .017-.457.7.7 0 0 0-.1-.343 1 1 0 0 0-.275-.279 2.744 2.744 0 0 0-.5-.268 7.625 7.625 0 0 0-1.314-.482 11.289 11.289 0 0 0-1.395-.294 1.255 1.255 0 0 0-.867.02q-.275.156-.346.8-.01 1.663.031 3.625t.074 3.935q.033 1.973.025 3.794t-.116 3.2a.981.981 0 0 0 .185.776 1.6 1.6 0 0 0 .708.408 3.6 3.6 0 0 0 .931.228q.533.065 1.037.135a1.07 1.07 0 0 0 .672-.072.647.647 0 0 0 .184-.46q.028-.953.061-2.154t.161-2.583q.8-.247 1.568-.462t1.571-.442q-.06 1.155-.09 2.089t-.012 1.643a.922.922 0 0 0 .414 1 3.872 3.872 0 0 0 1.321.4q.4.044.753.085a2.9 2.9 0 0 0 .605.016.724.724 0 0 0 .387-.132.39.39 0 0 0 .1-.379q.168-1.664.405-3.615t.511-3.926q.274-1.975.57-3.855t.563-3.4a1.239 1.239 0 0 0-.062-.782z" class="cls-2" data-name="Path 12" transform="translate(-67.387 -332.743)"/>
        <path id="Path_13" d="M432.262 389.175a1.549 1.549 0 0 0-.493-1.145 1.622 1.622 0 0 0-1.175-.483 2.585 2.585 0 0 0-1.15.28 3.709 3.709 0 0 0-1.078.829 2.237 2.237 0 0 0-.682-.789 1.553 1.553 0 0 0-.885-.259 1.4 1.4 0 0 0-1.236.585 3.2 3.2 0 0 0-.4 1.8v6.6a3.231 3.231 0 0 0 .4 1.8 1.6 1.6 0 0 0 2.478 0 3.2 3.2 0 0 0 .407-1.8v-3.419a2.918 2.918 0 0 1 .2-1.307 1.789 1.789 0 0 1 .824-.656q.325-.153.977-.387 1.813-.662 1.813-1.649z" class="cls-2" data-name="Path 13" transform="translate(-389.99 -382.037)"/>
        <g id="Group_1" data-name="Group 1" transform="translate(41.854 5.449)">
            <path id="Path_14" d="M503.67 387.632a1.375 1.375 0 0 0-1.221-.58 1.566 1.566 0 0 0-.886.264 2.164 2.164 0 0 0-.681.783 3.132 3.132 0 0 0-1.144-.886 3.646 3.646 0 0 0-1.48-.284 4.658 4.658 0 0 0-3.622 1.678 6.01 6.01 0 0 0-1.485 4.132 6.091 6.091 0 0 0 1.439 4.141 4.516 4.516 0 0 0 3.546 1.658 3.693 3.693 0 0 0 1.541-.32 3.289 3.289 0 0 0 1.206-.931 2.106 2.106 0 0 0 .641.865 1.529 1.529 0 0 0 .926.274 1.373 1.373 0 0 0 1.216-.59 3.237 3.237 0 0 0 .4-1.8v-6.6a3.235 3.235 0 0 0-.396-1.804zm-3.48 7.005a1.846 1.846 0 0 1-1.516.748 1.874 1.874 0 0 1-1.537-.738 3.027 3.027 0 0 1-.59-1.948 2.9 2.9 0 0 1 .595-1.9 1.891 1.891 0 0 1 1.532-.727 1.864 1.864 0 0 1 1.511.732 2.905 2.905 0 0 1 .595 1.892 3.036 3.036 0 0 1-.59 1.941z" class="cls-2" data-name="Path 14" transform="translate(-493.15 -386.93)"/>
        </g>
        <path id="Path_15" d="M236.539 415.736a2.915 2.915 0 1 1-2.915-2.916 2.915 2.915 0 0 1 2.915 2.916z" class="cls-2" data-name="Path 15" transform="translate(-214.655 -404.826)"/>
        <g id="Group_2" data-name="Group 2" transform="translate(12.093 4.032)">
            <path id="Path_16" d="M236.539 415.736a2.915 2.915 0 1 1-2.915-2.916 2.915 2.915 0 0 1 2.915 2.916z" class="cls-2" data-name="Path 16" transform="translate(-226.747 -408.858)"/>
            <path id="Path_17" d="M206.893 373.272a6.1 6.1 0 0 0-2.336.463l-.018.006-.094.038c-.062.026-.122.052-.178.079-.142.067-.267.136-.38.2a6.207 6.207 0 0 0-.933.647c-.238.114-.469.085-.869-.227-.154-.15-.315-.294-.483-.43l-.009-.009a5.264 5.264 0 0 0-2.213-1.194 6.867 6.867 0 0 0-1.859-.322c-.086 0-.134-.006-.134-.006h-.114a6.877 6.877 0 0 0 0 13.755h.115s.057 0 .157-.008a6.85 6.85 0 0 0 1.8-.31 5.3 5.3 0 0 0 2.253-1.205l.019-.019c.166-.135.326-.275.479-.425.4-.31.63-.336.868-.22a6.14 6.14 0 0 0 .9.627 4.119 4.119 0 0 0 .682.337l.018.007a6.125 6.125 0 1 0 2.336-11.788zm-9.616 11.339a5.214 5.214 0 1 1 5.214-5.214 5.214 5.214 0 0 1-5.214 5.214zm9.616-2.3a2.915 2.915 0 1 1 2.916-2.915 2.915 2.915 0 0 1-2.916 2.916zm0-4.494a1.58 1.58 0 1 0 1.58 1.58 1.58 1.58 0 0 0-1.58-1.579z" class="cls-2" data-name="Path 17" transform="translate(-190.4 -372.52)"/>
            <path id="Path_18" d="M236.539 415.736a2.915 2.915 0 1 1-2.915-2.916 2.915 2.915 0 0 1 2.915 2.916z" class="cls-2" data-name="Path 18" transform="translate(-226.747 -408.858)"/>
            <circle id="Ellipse_2" cx="1.58" cy="1.58" r="1.58" class="cls-2" data-name="Ellipse 2" transform="translate(14.914 5.298)"/>
        </g>
        <circle id="Ellipse_3" cx="1.58" cy="1.58" r="1.58" class="cls-2" data-name="Ellipse 3" transform="translate(27.006 9.33)"/>
        <path id="Path_19" d="M862.664 332.8a.522.522 0 0 0-.073-.258.734.734 0 0 0-.207-.209 2.057 2.057 0 0 0-.377-.2 5.772 5.772 0 0 0-.993-.362 8.4 8.4 0 0 0-1.049-.22.943.943 0 0 0-.653.015c-.138.078-.225.279-.26.6q-.008 1.251.023 2.726t.055 2.959q.024 1.484.018 2.852t-.087 2.406a.738.738 0 0 0 .139.583 1.2 1.2 0 0 0 .533.307 2.7 2.7 0 0 0 .7.172q.4.05.78.1a.8.8 0 0 0 .505-.055.487.487 0 0 0 .139-.346l.046-1.619q.026-.903.121-1.943l.186-2.657.218-2.484q.102-1.159.222-2.023a2.739 2.739 0 0 0 .014-.344z" class="cls-2" data-name="Path 19" transform="translate(-781.229 -331.501)"/>
    </g>
</svg>
