<svg xmlns="http://www.w3.org/2000/svg" width="145.203" height="24.56" viewBox="0 0 145.203 24.56">
    <defs>
        <linearGradient id="linear-gradient" x1="1" x2="-.298" y1="3.238" y2=".136" gradientUnits="objectBoundingBox">
            <stop offset="0" stop-color="#b466cc"/>
            <stop offset="1" stop-color="#4e77de"/>
        </linearGradient>
        <style>
            .cls-1{fill:url(#linear-gradient)}
        </style>
    </defs>
    <g id="Group_2946" data-name="Group 2946" transform="translate(-6095.797 158.051)">
        <g id="Group_2945" data-name="Group 2945" transform="translate(6095.797 -158.051)">
            <path id="XMLID_243_" d="M185.629 302.567a2.292 2.292 0 0 1 2.509-2.567h6.913c3.7 0 6.446.992 8.255 2.975 1.838 2.071 2.771 5.1 2.771 9.072a14.985 14.985 0 0 1-1.05 5.834 10.546 10.546 0 0 1-2.917 4.084 8.681 8.681 0 0 1-3.267 1.663 20.882 20.882 0 0 1-5.134.5H185.6v-21.561zm8.809 17.21c2.3 0 3.967-.613 4.988-1.808 1.05-1.2 1.6-3.179 1.6-5.892 0-2.684-.5-4.638-1.458-5.892a5.291 5.291 0 0 0-4.492-1.954H190.5v15.518h3.938z" class="cls-1" transform="translate(-185.6 -300)"/>
            <path id="XMLID_240_" d="M279.885 330.7a8.119 8.119 0 0 1-2.771 4.638 9.448 9.448 0 0 1-5.4 1.517c-5.688-.175-8.517-3.471-8.517-9.83q0-9.582 8.6-9.626 8.926 0 8.372 11.026h-12.127c.175 2.859 1.429 4.288 3.734 4.288a4.4 4.4 0 0 0 3.063-1.313 2.016 2.016 0 0 1 1.6-.7zm-4.7-5.688c-.292-2.509-1.429-3.734-3.471-3.734s-3.238 1.254-3.617 3.734z" class="cls-1" transform="translate(-240.565 -312.324)"/>
            <path id="XMLID_238_" d="M342.593 336.376q-2.363-.131-2.363-2.363v-9.626c-.087-1.954-1.167-2.917-3.267-2.917-2.071 0-3.15.963-3.179 2.917v11.988H329v-11.024q0-8.051 8.051-8.051t7.963 8.051v11.026z" class="cls-1" transform="translate(-287.172 -312.254)"/>
            <path id="XMLID_235_" d="M407.835 327.172q0 9.713-8.517 9.713t-8.517-9.713q0-9.757 8.517-9.772t8.517 9.772zm-12.251 0c.058 3.646 1.283 5.484 3.675 5.484s3.617-1.867 3.675-5.6c0-3.646-1.2-5.484-3.617-5.484-2.479-.03-3.733 1.866-3.733 5.6z" class="cls-1" transform="translate(-330.945 -312.324)"/>
            <path id="XMLID_233_" d="M460.092 337.085L453.5 318.3h5.192l3.821 13.155 3.267-11.493a2.223 2.223 0 0 1 2.275-1.663h3.675l-6.65 18.785z" class="cls-1" transform="translate(-375.356 -312.962)"/>
            <path id="XMLID_230_" d="M536.085 330.7a8.119 8.119 0 0 1-2.771 4.638 9.448 9.448 0 0 1-5.4 1.517c-5.688-.175-8.517-3.471-8.517-9.83q0-9.582 8.6-9.626 8.926 0 8.4 11.026h-12.155c.175 2.859 1.429 4.288 3.734 4.288a4.395 4.395 0 0 0 3.063-1.313 2.016 2.016 0 0 1 1.6-.7zm-4.7-5.688c-.263-2.509-1.429-3.734-3.471-3.734s-3.238 1.254-3.617 3.734z" class="cls-1" transform="translate(-422.034 -312.324)"/>
            <path id="XMLID_228_" d="M585.2 327.471c.146-6.067 3.354-9.072 9.626-9.072h.7v4.93h-1.6c-2.625 0-3.938 1.371-3.938 4.084v9.772H585.2z" class="cls-1" transform="translate(-468.641 -313.033)"/>
            <path id="XMLID_226_" d="M631.142 330.293a2.4 2.4 0 0 0 1.05 2.071 4.642 4.642 0 0 0 2.83.7c1.984 0 2.975-.612 2.975-1.808 0-.963-1.6-1.721-4.842-2.275-4.171-.729-6.271-2.6-6.3-5.542a5.472 5.472 0 0 1 2.012-4.439 9.014 9.014 0 0 1 5.484-1.6 9.326 9.326 0 0 1 5.749 1.6 5.943 5.943 0 0 1 2.217 4.579h-2.975c-1.108-.058-1.808-.437-2.071-1.167-.321-.846-1.283-1.254-2.829-1.254-1.838 0-2.771.5-2.771 1.458s1.225 1.692 3.675 2.159c3.179.642 5.28 1.458 6.3 2.421a4.7 4.7 0 0 1 1.313 3.325 5.461 5.461 0 0 1-2.217 4.725c-1.429 1.05-3.559 1.6-6.388 1.6-2.625 0-4.609-.554-5.892-1.663a5.645 5.645 0 0 1-2.159-4.842h4.842z" class="cls-1" transform="translate(-497.752 -312.324)"/>
        </g>
    </g>
</svg>
