<svg xmlns="http://www.w3.org/2000/svg" width="32" height="13.714" viewBox="0 0 32 13.714">
    <g id="infinity" transform="translate(-.001 -136.533)">
        <g id="Group_4662" data-name="Group 4662" transform="translate(.001 136.533)">
            <path id="Path_6556" fill="#32325d" d="M25.144 136.533c-3.571 0-7.429 3.459-9.143 5.192-1.714-1.733-5.571-5.192-9.143-5.192C2.564 136.533 0 139.1 0 143.39s2.563 6.857 6.857 6.857c3.571 0 7.429-3.459 9.143-5.192 1.714 1.733 5.571 5.192 9.143 5.192 4.294 0 6.857-2.563 6.857-6.857s-2.562-6.857-6.856-6.857zM6.858 147.962c-3.033 0-4.571-1.538-4.571-4.571s1.538-4.571 4.571-4.571c2.514 0 5.851 2.833 7.575 4.571-1.72 1.74-5.05 4.571-7.575 4.571zm18.286 0c-2.514 0-5.851-2.833-7.575-4.571 1.714-1.739 5.05-4.571 7.575-4.571 3.033 0 4.571 1.538 4.571 4.571s-1.538 4.571-4.571 4.571z" data-name="Path 6556" transform="translate(-.001 -136.533)"/>
        </g>
    </g>
</svg>
