<svg xmlns="http://www.w3.org/2000/svg" width="32" height="32" viewBox="0 0 32 32">
    <g id="layers">
        <g id="Group_4663" data-name="Group 4663">
            <path id="Path_6557" fill="#32325d" d="M32 16a.938.938 0 0 0-.446-.8l-3.252-2 3.256-2.026a.937.937 0 0 0 0-1.59L16.5.143a.938.938 0 0 0-1 0L.44 9.581a.937.937 0 0 0 0 1.59l3.233 2.012-3.232 2.022a.938.938 0 0 0 0 1.591l3.233 2.012L.441 20.83a.937.937 0 0 0 0 1.589L15.5 31.857a.937.937 0 0 0 1 0l15.06-9.438a.937.937 0 0 0-.006-1.592l-3.252-2 3.256-2.027A.938.938 0 0 0 32 16zM2.707 10.372L16 2.044l13.293 8.329L16 18.646zm26.579 11.26L16 29.956l-13.3-8.33 2.743-1.714L15.5 26.171a.938.938 0 0 0 .991 0l10.029-6.242zM16 24.271L2.709 16l2.739-1.712L15.5 20.546a.938.938 0 0 0 .991 0L26.524 14.3l2.758 1.7z" data-name="Path 6557"/>
        </g>
    </g>
</svg>
