<svg xmlns="http://www.w3.org/2000/svg" width="96.001" height="16.029" viewBox="0 0 96.001 16.029">
    <path d="M2.917 13.448h6.279v2.408h-9.2V.174h2.921zm13.318 2.408h-2.928V.174h2.928zM23.024.174a2.7 2.7 0 0 1 .325.016.763.763 0 0 1 .233.065.782.782 0 0 1 .2.141 2.261 2.261 0 0 1 .217.244l8.233 10.487q-.043-.38-.06-.743t-.016-.678V.173h2.57v15.683h-1.507a1.336 1.336 0 0 1-.575-.108 1.28 1.28 0 0 1-.445-.39L24 4.916q.033.347.049.689t.016.624v9.63h-2.57V.174zm19.619 6.572h.683a1.774 1.774 0 0 0 .683-.114 1.156 1.156 0 0 0 .466-.363L48.802.792a1.571 1.571 0 0 1 .57-.483 1.826 1.826 0 0 1 .754-.136h2.516L47.36 6.691a4.78 4.78 0 0 1-.477.51 2.178 2.178 0 0 1-.488.336 2.155 2.155 0 0 1 .645.369 3.405 3.405 0 0 1 .559.607l5.444 7.342h-2.581a1.6 1.6 0 0 1-.775-.146 1.215 1.215 0 0 1-.428-.428L44.823 9.49a1.314 1.314 0 0 0-.488-.407 1.9 1.9 0 0 0-.77-.125h-.922v6.9h-2.917V.163h2.917zM66.394.174v2.321h-6.952v4.349h5.477v2.245h-5.477v4.436h6.952v2.332h-9.891V.174zm7.278 9.554v6.127h-2.918V.174h4.783a9.989 9.989 0 0 1 2.749.331 5.239 5.239 0 0 1 1.876.927 3.58 3.58 0 0 1 1.074 1.426 4.755 4.755 0 0 1 .342 1.827 4.735 4.735 0 0 1-.233 1.5 4.331 4.331 0 0 1-.672 1.28 4.532 4.532 0 0 1-1.085 1.009 5.685 5.685 0 0 1-1.47.694 2.89 2.89 0 0 1 .954.9l3.926 5.791h-2.626a1.281 1.281 0 0 1-.645-.152 1.319 1.319 0 0 1-.45-.434l-3.3-5.021a1.157 1.157 0 0 0-.407-.4 1.425 1.425 0 0 0-.656-.119zm0-2.093h1.822a4.515 4.515 0 0 0 1.437-.206 2.778 2.778 0 0 0 1.009-.569 2.287 2.287 0 0 0 .591-.862 2.981 2.981 0 0 0 .2-1.1 2.227 2.227 0 0 0-.786-1.833 3.761 3.761 0 0 0-2.4-.64h-1.873zm21.331-4.609a.8.8 0 0 1-.277.336.7.7 0 0 1-.374.1.951.951 0 0 1-.488-.168q-.271-.168-.64-.374a5.225 5.225 0 0 0-.862-.374 3.624 3.624 0 0 0-1.166-.168 3.427 3.427 0 0 0-1.057.146 2.239 2.239 0 0 0-.759.407 1.625 1.625 0 0 0-.461.624 2.047 2.047 0 0 0-.152.8 1.386 1.386 0 0 0 .309.922 2.581 2.581 0 0 0 .819.629 7.6 7.6 0 0 0 1.16.466q.651.206 1.329.439a12.794 12.794 0 0 1 1.329.542 4.6 4.6 0 0 1 1.16.781 3.539 3.539 0 0 1 .819 1.155 4.011 4.011 0 0 1 .309 1.659 5.406 5.406 0 0 1-.363 1.99 4.591 4.591 0 0 1-1.066 1.611 5.006 5.006 0 0 1-1.708 1.085 6.289 6.289 0 0 1-2.31.4 7.449 7.449 0 0 1-1.475-.146 7.764 7.764 0 0 1-1.394-.418 7.277 7.277 0 0 1-1.247-.651 6.138 6.138 0 0 1-1.036-.846l.846-1.4a1.079 1.079 0 0 1 .291-.257.7.7 0 0 1 .374-.1 1.035 1.035 0 0 1 .586.222q.315.222.743.493a5.7 5.7 0 0 0 1.009.493 3.9 3.9 0 0 0 1.394.222 2.861 2.861 0 0 0 1.93-.591 2.122 2.122 0 0 0 .683-1.7 1.576 1.576 0 0 0-.309-1.009 2.5 2.5 0 0 0-.819-.656 6.113 6.113 0 0 0-1.16-.45q-.651-.184-1.323-.4a11.411 11.411 0 0 1-1.324-.524 4.286 4.286 0 0 1-1.16-.792 3.6 3.6 0 0 1-.819-1.22 4.65 4.65 0 0 1-.309-1.806 4.274 4.274 0 0 1 .337-1.667 4.276 4.276 0 0 1 1-1.442A4.925 4.925 0 0 1 88.983.38a5.863 5.863 0 0 1 2.18-.38 7.315 7.315 0 0 1 2.559.434 5.778 5.778 0 0 1 2 1.215z" data-name="Path 10058"/>
</svg>
