<svg xmlns="http://www.w3.org/2000/svg" id="meeting" width="80" height="80" viewBox="0 0 80 80">
    <defs>
        <style>
            .cls-1{fill:#32325d}
        </style>
    </defs>
    <g id="Group_5388" data-name="Group 5388">
        <path id="Path_7223" d="M75.779 99.606A10.991 10.991 0 0 0 80 90.923a10.67 10.67 0 1 0-21.333 0 11 11 0 0 0 3.633 8.193h-7.081l-8.943-9.158a1.31 1.31 0 0 0-1.885 0l-5.334 5.462a1.387 1.387 0 0 0 0 1.931l12 12.289a1.312 1.312 0 0 0 .943.4h10.667v9.56H39.824l6.619-10.166-2.219-1.514-7.6 11.68h-3.291v-6.83A1.348 1.348 0 0 0 32 111.4H21.333v-5.462a6.826 6.826 0 0 0-4.221-6.337 10.991 10.991 0 0 0 4.221-8.683A10.81 10.81 0 0 0 10.667 80 10.81 10.81 0 0 0 0 90.923a10.991 10.991 0 0 0 4.221 8.683A6.826 6.826 0 0 0 0 105.943v19.116a6.756 6.756 0 0 0 6.667 6.827v16.385h2.666v-16.385h9.333v15.02A1.348 1.348 0 0 0 20 148.271h9.333a1.348 1.348 0 0 0 1.333-1.365v-20.481a6.9 6.9 0 0 0-1.336-4.1h9.336v23.212h-5.333v2.731h13.334v-2.731h-5.334v-23.209H50.7a6.862 6.862 0 0 0-1.368 4.1v20.481a1.348 1.348 0 0 0 1.333 1.365H60a1.348 1.348 0 0 0 1.333-1.365v-15.02h9.333v16.385h2.667v-16.388A6.756 6.756 0 0 0 80 125.059v-19.116a6.826 6.826 0 0 0-4.221-6.337zM2.667 90.923a8.106 8.106 0 0 1 8-8.193 8.195 8.195 0 0 1 0 16.385 8.106 8.106 0 0 1-8-8.192zm28 28.674H13.333v-10.923h-2.666v12.289A1.348 1.348 0 0 0 12 122.328h12a4.054 4.054 0 0 1 4 4.1v19.116h-6.667v-15.02A1.348 1.348 0 0 0 20 129.155H6.667a4.054 4.054 0 0 1-4-4.1v-19.112a4.054 4.054 0 0 1 4-4.1h8a4.054 4.054 0 0 1 4 4.1v6.827A1.348 1.348 0 0 0 20 114.136h10.667zm30.666-28.674a8 8 0 1 1 8 8.193 8.106 8.106 0 0 1-8-8.193zm16 34.136a4.054 4.054 0 0 1-4 4.1H60a1.348 1.348 0 0 0-1.333 1.365v15.02H52v-19.119a4.054 4.054 0 0 1 4-4.1h8a1.348 1.348 0 0 0 1.333-1.365v-12.286A1.348 1.348 0 0 0 64 107.309H52.552L41.885 96.385l3.448-3.531 8.391 8.593a1.312 1.312 0 0 0 .943.4h18.666a4.054 4.054 0 0 1 4 4.1z" class="cls-1" data-name="Path 7223" transform="translate(0 -68.271)"/>
        <g id="Group_5118" data-name="Group 5118" transform="translate(24.753)">
            <g id="Group_5117" data-name="Group 5117">
                <path id="Path_7224" d="M162.976 0h-23.457A3.523 3.523 0 0 0 136 3.519V12.9a3.523 3.523 0 0 0 3.519 3.519h1.173v7.037a1.172 1.172 0 0 0 .724 1.084 1.158 1.158 0 0 0 .449.089 1.173 1.173 0 0 0 .829-.344l7.866-7.866h12.416a3.523 3.523 0 0 0 3.519-3.519V3.519A3.523 3.523 0 0 0 162.976 0zm1.173 12.9a1.173 1.173 0 0 1-1.173 1.173h-12.9a1.168 1.168 0 0 0-.829.344l-6.208 6.208v-5.378a1.172 1.172 0 0 0-1.173-1.173h-2.346a1.173 1.173 0 0 1-1.173-1.173V3.519a1.173 1.173 0 0 1 1.173-1.173h23.457a1.173 1.173 0 0 1 1.173 1.173z" class="cls-1" data-name="Path 7224" transform="translate(-136)"/>
            </g>
        </g>
        <g id="Group_5120" data-name="Group 5120" transform="translate(27.704 5)">
            <g id="Group_5119" data-name="Group 5119">
                <rect id="Rectangle_266" width="8" height="2" class="cls-1" data-name="Rectangle 266" rx="1"/>
            </g>
        </g>
        <g id="Group_5122" data-name="Group 5122" transform="translate(28.777 10)">
            <g id="Group_5121" data-name="Group 5121">
                <rect id="Rectangle_267" width="22" height="2" class="cls-1" data-name="Rectangle 267" rx="1"/>
            </g>
        </g>
        <g id="Group_5124" data-name="Group 5124" transform="translate(39.608 5)">
            <g id="Group_5123" data-name="Group 5123">
                <rect id="Rectangle_268" width="12" height="2" class="cls-1" data-name="Rectangle 268" rx="1"/>
            </g>
        </g>
    </g>
</svg>
