<svg xmlns="http://www.w3.org/2000/svg" xmlns:xlink="http://www.w3.org/1999/xlink" width="401.021" height="258.46" viewBox="0 0 401.021 258.46">
    <defs>
        <linearGradient id="linear-gradient" x1="-.276" x2="1.276" y1=".869" y2=".131" gradientUnits="objectBoundingBox">
            <stop offset=".27" stop-color="#fff" stop-opacity=".102"/>
            <stop offset="1" stop-color="#fff" stop-opacity=".302"/>
        </linearGradient>
        <linearGradient id="linear-gradient-2" x1="-.355" x2="1.355" y1=".853" y2=".147" xlink:href="#linear-gradient"/>
        <clipPath id="clip-path">
            <rect id="Rectangle_54" width="121.858" height="218.616" class="cls-1" data-name="Rectangle 54" rx="9.831"/>
        </clipPath>
        <style>
            .cls-1,.cls-13,.cls-17,.cls-21,.cls-25,.cls-29,.cls-30,.cls-31,.cls-34,.cls-5,.cls-7{fill:none}.cls-4,.cls-5{stroke:#adbbf9}.cls-25,.cls-30,.cls-4,.cls-5{stroke-linejoin:round}.cls-3{fill:#e4e9f9}.cls-11,.cls-4{fill:#fff}.cls-13,.cls-17,.cls-21,.cls-29,.cls-31,.cls-34,.cls-7{stroke-miterlimit:10}.cls-7{stroke:#4643bf}.cls-12{fill:#d3dbf4}.cls-13{stroke:#fff}.cls-14{fill:#e3eafc}.cls-15{fill:#f0f1ff}.cls-16{fill:#c2cfef}.cls-17{stroke:#d3dbf4}.cls-19{fill:#ffcbbd}.cls-21{stroke:#121649}.cls-21,.cls-29,.cls-34{stroke-width:.75px}.cls-23{fill:#0e32ae}.cls-25{stroke:#e88872;stroke-width:.5px}.cls-26{fill:#28364c}.cls-28{fill:#adbbf9}.cls-29{stroke:#525bce}.cls-30{stroke:#f49c8e}.cls-31{stroke:#0e32ae}.cls-33{fill:#f7471e}.cls-34{stroke:#b22b19}.cls-35{fill:#4a1a1a}
        </style>
    </defs>
    <g id="OBJECTS" transform="translate(-53.307 -47.654)">
        <g id="Group_85" data-name="Group 85" transform="translate(50.106 48.154)">
            <g id="Group_17" data-name="Group 17" transform="translate(3.7)">
                <path id="Path_39" fill="none" stroke="#adbbf9" stroke-dasharray="3.5 3.5" stroke-linejoin="round" d="M244.67 276.359c-3.6-12.425-13.888-21.981-27.161-22.3-7.719-.187-15.2 3.124-21.776 6.9-8.873 5.1-19.334 11.247-29.95 9.7-6.8-.991-14.857-4.807-16.453-12.691-1.688-8.344 5.053-14.066 12.259-17.422 6.174-2.875 14.837-9.752 17.611-16.335 11-26.106-19.763-55.9-11.08-85.654 9.087-31.136 51.161-36.4 72.312-15.259a61.386 61.386 0 0 1 5.649 6.48c4.316 5.732 6.856 13.538 12.855 17.839 7.77 5.567 17.835 3.786 26.2.48 15.992-6.319 20.221-10.488 35.857-17.293 11.246-4.895 25.1-9.262 37.733-4.912 9.054 3.117 19.054 8.72 24.118 16.833 9.416 15.086 5.188 31.338 20.074 52.792 6.744 9.72 17.464 12.445 26.005 19.468 22.143 18.208 14.74 56.592-9.409 69.728-19.829 10.786-44.245 8.321-65.748 5.558q-2.473-.317-4.939-.681" data-name="Path 39" transform="translate(-90.978 -71.597)"/>
                <path id="Path_40" d="M514.918 112.8a36.7 36.7 0 0 0 7.989-15.127l-7.381-2.617a28.772 28.772 0 0 0 .712-7.691l7.748-1.2a36.947 36.947 0 0 0-5.047-16.346l-7.079 3.373a28.764 28.764 0 0 0-4.924-5.949l4.621-6.323a36.671 36.671 0 0 0-15.127-7.989l-2.617 7.381a28.79 28.79 0 0 0-7.69-.713l-1.205-7.747a36.953 36.953 0 0 0-16.347 5.048l3.373 7.079A28.811 28.811 0 0 0 466 68.9l-6.323-4.62a36.693 36.693 0 0 0-7.994 15.12l7.381 2.617a28.77 28.77 0 0 0-.712 7.69l-7.752 1.21a36.949 36.949 0 0 0 5.048 16.346l7.078-3.373a28.786 28.786 0 0 0 4.925 5.95l-4.621 6.322a36.682 36.682 0 0 0 15.127 7.99l2.617-7.382a28.792 28.792 0 0 0 7.69.713l1.205 7.747a36.943 36.943 0 0 0 16.346-5.047l-3.373-7.079a28.8 28.8 0 0 0 5.949-4.924zm-36.2-8.019a18.369 18.369 0 1 1 24.822-7.664 18.369 18.369 0 0 1-24.824 7.665zm2.483-4.7a13.053 13.053 0 1 1 17.638-5.447 13.053 13.053 0 0 1-17.639 5.447z" class="cls-3" data-name="Path 40" transform="translate(-204.24 -49.542)"/>
                <path id="Path_41" d="M260.328 156.422a22.711 22.711 0 0 0 3.99-9.813l-4.709-1.157a17.819 17.819 0 0 0-.035-4.782l4.7-1.22a22.887 22.887 0 0 0-4.118-9.76L256 132.2a17.831 17.831 0 0 0-3.4-3.362l2.457-4.181a22.722 22.722 0 0 0-9.812-3.989l-1.158 4.709a17.809 17.809 0 0 0-4.782.035l-1.22-4.7a22.872 22.872 0 0 0-9.76 4.118l2.514 4.153a17.834 17.834 0 0 0-3.362 3.4l-4.181-2.458a22.729 22.729 0 0 0-3.989 9.813l4.709 1.157a17.816 17.816 0 0 0 .035 4.782l-4.7 1.22a22.885 22.885 0 0 0 4.117 9.76l4.153-2.514a17.812 17.812 0 0 0 3.4 3.362l-2.457 4.181a22.72 22.72 0 0 0 9.813 3.989l1.157-4.709a17.811 17.811 0 0 0 4.782-.035l1.22 4.7a22.878 22.878 0 0 0 9.76-4.118l-2.515-4.153a17.817 17.817 0 0 0 3.362-3.4zm-22.8-2.709a11.374 11.374 0 1 1 14.82-6.253 11.373 11.373 0 0 1-14.818 6.254zm1.239-3.05a8.082 8.082 0 1 1 10.531-4.443 8.082 8.082 0 0 1-10.528 4.444z" class="cls-3" data-name="Path 41" transform="translate(-117.362 -75.393)"/>
                <path id="Path_42" d="M298.173 92.676a15.914 15.914 0 0 0 3.463-6.557l-3.2-1.134a12.438 12.438 0 0 0 .309-3.334l3.359-.523a16.019 16.019 0 0 0-2.188-7.085l-3.068 1.462a12.471 12.471 0 0 0-2.135-2.579l2-2.741a15.9 15.9 0 0 0-6.557-3.463l-1.135 3.2a12.488 12.488 0 0 0-3.334-.309l-.522-3.358a16.01 16.01 0 0 0-7.085 2.188l1.462 3.068a12.489 12.489 0 0 0-2.579 2.134l-2.741-2a15.914 15.914 0 0 0-3.463 6.557l3.2 1.134a12.484 12.484 0 0 0-.308 3.333l-3.359.523a16.013 16.013 0 0 0 2.188 7.086l3.068-1.462a12.458 12.458 0 0 0 2.135 2.579l-2 2.74a15.908 15.908 0 0 0 6.557 3.464l1.135-3.2a12.488 12.488 0 0 0 3.334.309l.522 3.359a16.019 16.019 0 0 0 7.086-2.188l-1.462-3.068a12.493 12.493 0 0 0 2.579-2.135zm-14.651-5.447a5.733 5.733 0 1 1 7.747-2.392 5.733 5.733 0 0 1-7.747 2.392z" class="cls-3" data-name="Path 42" transform="translate(-136.513 -54.953)"/>
                <path id="Path_43" d="M161.968 174.5c-.021-.416-.056-.859-.108-1.332-.428-3.877-3.084-3.521-4.737-3.4s-3.708.18-4.5-1.623a18.068 18.068 0 0 1-.555-2.58 4 4 0 0 0-3.77-3.01 7.053 7.053 0 0 0-4.417 2.047c-.679.589-1.445 1.28-2.255 1.058a2.421 2.421 0 0 1-1.247-1.163c-1.893-3.073-1.881-7.541-3.954-10.432-2.288-3.191-6.562-3.255-9.456-.94s-4.554 6.442-5.312 10.606c-.247 1.354-.46 2.838-1.295 3.762-1.193 1.32-3.021.884-4.614.7a6.642 6.642 0 0 0-5.322 1.449 6.146 6.146 0 0 0-1.868 4.857z" class="cls-4" data-name="Path 43" transform="translate(-75.756 -86.974)"/>
                <path id="Path_44" d="M364.561 68.645h52.558a12.753 12.753 0 0 0-4.491-3.286c-3-1.051-4.248 1.9-6.141-1.917-1.063-2.142-1.808-4.963-4.6-5.694-4.372-1.145-5.483 2.468-7.566 1.491-1.829-.857-1.772-4.287-3.618-7.154-1.8-2.8-6.2-4.527-9.2-3.065-5.48 2.67-4.768 6.919-6.564 8.319-1.771 1.382-5.834-3.485-10.374 1.778-3.134 3.628-.004 9.528-.004 9.528z" class="cls-4" data-name="Path 44" transform="translate(-171.399 -48.28)"/>
                <path id="Path_45" d="M450.493 50.461a2.307 2.307 0 1 1-2.307-2.307 2.307 2.307 0 0 1 2.307 2.307z" class="cls-5" data-name="Path 45" transform="translate(-202.465 -48.154)"/>
                <path id="Path_46" d="M693.922 348.153a2.307 2.307 0 1 1-2.306-2.307 2.307 2.307 0 0 1 2.306 2.307z" class="cls-5" data-name="Path 46" transform="translate(-293.901 -159.972)"/>
                <path id="Path_47" d="M517.5 195.1a2.307 2.307 0 1 1-2.307-2.307 2.307 2.307 0 0 1 2.307 2.307z" class="cls-5" data-name="Path 47" transform="translate(-227.635 -102.482)"/>
                <path id="Path_48" d="M60.647 238.9a2.307 2.307 0 1 1-2.307-2.307 2.307 2.307 0 0 1 2.307 2.307z" class="cls-5" data-name="Path 48" transform="translate(-56.033 -118.935)"/>
                <path id="Path_49" d="M211.335 100.426a2.307 2.307 0 1 1-2.307-2.307 2.307 2.307 0 0 1 2.307 2.307z" class="cls-5" data-name="Path 49" transform="translate(-112.634 -66.922)"/>
                <path id="Path_50" d="M255.976 84.07a1.568 1.568 0 1 1-1.568-1.568 1.568 1.568 0 0 1 1.568 1.568z" class="cls-5" data-name="Path 50" transform="translate(-129.957 -61.056)"/>
                <path id="Path_51" d="M664.922 261.819a1.568 1.568 0 1 1-1.569-1.568 1.568 1.568 0 0 1 1.569 1.568z" class="cls-5" data-name="Path 51" transform="translate(-283.564 -127.821)"/>
                <circle id="Ellipse_2" cx="1.568" cy="1.568" r="1.568" class="cls-5" data-name="Ellipse 2" transform="translate(265.886 80.538)"/>
                <path id="Path_52" d="M583.77 115.531a1.568 1.568 0 1 1-1.568-1.568 1.569 1.569 0 0 1 1.568 1.568z" class="cls-5" data-name="Path 52" transform="translate(-253.081 -72.873)"/>
                <path id="Path_53" d="M578.424 299.476a1.568 1.568 0 1 1-1.568-1.568 1.569 1.569 0 0 1 1.568 1.568z" class="cls-5" data-name="Path 53" transform="translate(-251.073 -141.966)"/>
                <path id="Path_54" d="M188.71 323.516a1.568 1.568 0 1 1-1.568-1.568 1.568 1.568 0 0 1 1.568 1.568z" class="cls-5" data-name="Path 54" transform="translate(-104.691 -150.995)"/>
                <path id="Path_55" d="M196.245 208.8a1.568 1.568 0 1 1-1.568-1.568 1.569 1.569 0 0 1 1.568 1.568z" class="cls-5" data-name="Path 55" transform="translate(-107.521 -107.908)"/>
                <rect id="Rectangle_48" width="3.467" height="3.467" class="cls-3" data-name="Rectangle 48" rx="1.094" transform="translate(388.219 108.105)"/>
                <rect id="Rectangle_49" width="3.467" height="3.467" class="cls-3" data-name="Rectangle 49" rx="1.094" transform="translate(65.334 180.274)"/>
                <rect id="Rectangle_50" width="3.467" height="3.467" class="cls-3" data-name="Rectangle 50" rx="1.094" transform="translate(61.684 52.559)"/>
                <rect id="Rectangle_51" width="6.653" height="6.653" class="cls-3" data-name="Rectangle 51" rx="2.099" transform="translate(328.652 24.583)"/>
                <rect id="Rectangle_52" width="3.467" height="3.467" class="cls-3" data-name="Rectangle 52" rx="1.094" transform="translate(293.589 128.276)"/>
                <path id="Path_56" d="M454.169 209.631c.017-.3.046-.616.089-.956.352-2.782 2.532-2.526 3.889-2.442s3.044.129 3.693-1.164a11.555 11.555 0 0 0 .455-1.851 3.238 3.238 0 0 1 3.1-2.16 6.18 6.18 0 0 1 3.622 1.467c3.485 2.639 4.486-4.311 6.135-6.322 1.879-2.29 5.376-3.572 7.751-1.911s3.739 4.622 4.361 7.611c.2.971.275 2.162 1.063 2.7 2.3 1.57 5.271-1.477 8.056.89.975.829 1.16 2.835 1.035 4.14z" class="cls-4" data-name="Path 56" transform="translate(-205.579 -102.762)"/>
            </g>
            <g id="Group_18" data-name="Group 18" transform="translate(34.94 150.72)">
                <path id="Path_57" d="M169.317 415.307c-7.828-11.81-24.217-41.645-10.012-51.914 7.8-5.639 18.141-.508 23.141 11.927 4.748 11.809 6.564 25.759 8.543 39.82" class="cls-4" data-name="Path 57" transform="translate(-123.961 -316.426)"/>
                <path id="Line_35" d="M0 0L18.453 53.721" class="cls-4" data-name="Line 35" transform="translate(39.371 45.197)"/>
                <path id="Path_58" d="M120.036 423.808c-6.753-8.736-21.516-30.805-9.262-38.4 6.729-4.171 15.026-.376 19.338 8.823 4.1 8.735 5.663 19.054 7.37 29.455" class="cls-4" data-name="Path 58" transform="translate(-106.066 -324.917)"/>
                <path id="Line_36" d="M0 0L15.919 39.738" class="cls-4" data-name="Line 36" transform="translate(8.182 59.18)"/>
                <path id="Path_59" d="M241.524 394.444C223.02 360.877 211.069 327.6 226 311.791c14.795-15.665 30.27 2.9 34.035 19.347 4.612 20.145 5.28 41.952 5.189 63.306" class="cls-4" data-name="Path 59" transform="translate(-148.582 -295.677)"/>
                <path id="Line_37" d="M0 0L22.227 86.682" class="cls-5" data-name="Line 37" transform="translate(82.896 12.036)"/>
                <path id="Path_60" d="M200.663 407.418c-7.351-17.756-23.885-53.675-12.224-64.777 7.457-7.1 20.922 1.6 27.85 17.12 6.58 14.735 8.557 29.9 12.5 47.449" class="cls-4" data-name="Path 60" transform="translate(-135.488 -308.547)"/>
                <path id="Path_61" d="M439.271 388.316c-6.236-71.458 8.943-97.565 25.548-98.736 7.867-.555 30.909 3.974 3.088 98.692" class="cls-4" data-name="Path 61" transform="translate(-230.685 -289.543)"/>
                <path id="Line_38" d="M14.672 0L0 98.527" class="cls-4" data-name="Line 38" transform="translate(222.699 .202)"/>
                <path id="Path_62" d="M518.747 410.814c5.087-42.472 22.221-66.951 37.7-60.306 12.662 5.435 6.128 29.078-13.6 60.281" class="cls-4" data-name="Path 62" transform="translate(-261.075 -312.037)"/>
                <path id="Line_39" d="M25.329 0L0 60.281" class="cls-4" data-name="Line 39" transform="translate(270.044 38.471)"/>
                <path id="Line_40" d="M0 0L22.626 67.032" class="cls-4" data-name="Line 40" transform="translate(56.982 31.886)"/>
                <path id="Path_63" d="M500.747 393.65c10.005-21.208 30.181-69.636 14.986-86.807-8.344-9.429-23.614 2.148-31.714 22.942-7.691 19.746-13.449 40.074-18.222 63.587" class="cls-4" data-name="Path 63" transform="translate(-241.186 -294.793)"/>
                <path id="Line_41" d="M26.754 0L0 89.828" class="cls-4" data-name="Line 41" transform="translate(243.29 9.089)"/>
                <path id="Path_64" d="M550.062 428.475c13.19-26.737 24.636-33.809 35.388-31.673 8.359 1.661 9.667 14.011-8 31.656" class="cls-4" data-name="Path 64" transform="translate(-272.838 -329.697)"/>
                <path id="Line_42" d="M20.151 0L0 31.475" class="cls-4" data-name="Line 42" transform="translate(291.427 67.284)"/>
            </g>
            <g id="Group_38" data-name="Group 38" transform="translate(141.929 31.053)">
                <g id="Rectangle_53" fill="#849cf4" stroke="#849cf4" stroke-miterlimit="10" data-name="Rectangle 53">
                    <rect width="121.858" height="218.616" stroke="none" rx="9.831"/>
                    <rect width="120.858" height="217.616" x=".5" y=".5" class="cls-1" rx="9.331"/>
                </g>
                <g id="Group_19" data-name="Group 19" transform="translate(55.362 203.021)">
                    <path id="Path_65" d="M377.218 428.609a5.567 5.567 0 1 1-5.567-5.567 5.567 5.567 0 0 1 5.567 5.567z" class="cls-7" data-name="Path 65" transform="translate(-366.084 -423.042)"/>
                </g>
                <g id="Group_22" data-name="Group 22">
                    <g id="Group_21" clip-path="url(#clip-path)" data-name="Group 21">
                        <g id="Group_20" data-name="Group 20" transform="translate(-1.397 -23.686)">
                            <path id="Path_66" fill="url(#linear-gradient)" d="M366.371 59.952L275.18 307.767h26.506l91.191-247.815z" data-name="Path 66" transform="translate(-275.18 -59.952)"/>
                            <path id="Path_67" fill="url(#linear-gradient-2)" d="M421.949 59.952l-91.19 247.815H342l91.19-247.815z" data-name="Path 67" transform="translate(-296.056 -59.952)"/>
                        </g>
                    </g>
                </g>
                <path id="Rectangle_55" d="M0 0H119.915V177.894H0z" class="cls-11" data-name="Rectangle 55" transform="translate(.971 20.361)"/>
                <g id="Group_23" data-name="Group 23" transform="translate(49.596 9.049)">
                    <path id="Path_68" d="M363.614 112.414H380.5a.676.676 0 0 1 .676.676.676.676 0 0 1-.676.676h-16.886a.676.676 0 0 1-.676-.676.676.676 0 0 1 .676-.676z" class="cls-7" data-name="Path 68" transform="translate(-359.136 -112.393)"/>
                    <circle id="Ellipse_3" cx=".698" cy=".698" r=".698" class="cls-7" data-name="Ellipse 3"/>
                </g>
                <g id="Group_37" data-name="Group 37" transform="translate(9.165 24.83)">
                    <g id="Group_26" data-name="Group 26" transform="translate(0 64.421)">
                        <path id="Rectangle_56" d="M0 0H51.764V52.309H0z" class="cls-12" data-name="Rectangle 56"/>
                        <g id="Group_24" data-name="Group 24" transform="translate(13.595 6.35)">
                            <circle id="Ellipse_4" cx="10.717" cy="10.717" r="10.717" class="cls-13" data-name="Ellipse 4" transform="matrix(.159 -.987 .987 .159 0 21.16)"/>
                            <ellipse id="Ellipse_5" cx="7.383" cy="10.717" class="cls-13" data-name="Ellipse 5" rx="7.383" ry="10.717" transform="translate(4.905 1.571)"/>
                            <ellipse id="Ellipse_6" cx="2.876" cy="10.717" class="cls-13" data-name="Ellipse 6" rx="2.876" ry="10.717" transform="translate(9.411 1.571)"/>
                            <path id="Line_43" d="M0 0L21.433 0" class="cls-13" data-name="Line 43" transform="translate(1.571 12.287)"/>
                            <path id="Path_69" d="M318.182 277.647a41.072 41.072 0 0 1 19.187 0" class="cls-13" data-name="Path 69" transform="translate(-315.489 -260.582)"/>
                            <path id="Path_70" d="M323.161 283.675a19.5 19.5 0 0 1 12.9-.028" class="cls-13" data-name="Path 70" transform="translate(-317.359 -262.856)"/>
                            <path id="Path_71" d="M318.182 263.121a41.071 41.071 0 0 0 19.187 0" class="cls-13" data-name="Path 71" transform="translate(-315.489 -255.553)"/>
                            <path id="Path_72" d="M323.161 257.109a19.5 19.5 0 0 0 12.9.028" class="cls-13" data-name="Path 72" transform="translate(-317.359 -253.295)"/>
                        </g>
                        <g id="Group_25" data-name="Group 25" transform="translate(4.403 35.047)">
                            <path id="Rectangle_57" d="M0 0H42.958V2.767H0z" class="cls-14" data-name="Rectangle 57" transform="rotate(180 21.479 3.956)"/>
                            <path id="Rectangle_58" d="M0 0H25.672V2.767H0z" class="cls-14" data-name="Rectangle 58" transform="rotate(180 21.479 1.384)"/>
                            <path id="Rectangle_59" d="M0 0H14.368V2.767H0z" class="cls-14" data-name="Rectangle 59"/>
                            <path id="Rectangle_60" d="M0 0H42.958V2.767H0z" class="cls-14" data-name="Rectangle 60" transform="rotate(180 21.479 6.528)"/>
                        </g>
                    </g>
                    <g id="Group_28" data-name="Group 28" transform="translate(51.71 64.421)">
                        <path id="Rectangle_61" d="M0 0H51.764V52.309H0z" class="cls-15" data-name="Rectangle 61"/>
                        <g id="Group_27" data-name="Group 27" transform="translate(4.403 4.18)">
                            <path id="Rectangle_62" d="M0 0H42.958V2.767H0z" class="cls-3" data-name="Rectangle 62" transform="rotate(180 21.479 3.956)"/>
                            <path id="Rectangle_63" d="M0 0H42.958V2.767H0z" class="cls-3" data-name="Rectangle 63" transform="rotate(180 21.479 6.528)"/>
                            <path id="Rectangle_64" d="M0 0H13.377V2.767H0z" class="cls-3" data-name="Rectangle 64" transform="rotate(180 6.688 9.1)"/>
                            <path id="Rectangle_65" d="M0 0H25.944V2.767H0z" class="cls-3" data-name="Rectangle 65" transform="rotate(180 21.45 9.1)"/>
                            <path id="Rectangle_66" d="M0 0H42.958V2.767H0z" class="cls-3" data-name="Rectangle 66" transform="rotate(180 21.479 11.673)"/>
                            <path id="Rectangle_67" d="M0 0H42.958V2.767H0z" class="cls-3" data-name="Rectangle 67" transform="rotate(180 21.479 14.245)"/>
                            <path id="Rectangle_68" d="M0 0H42.958V2.767H0z" class="cls-3" data-name="Rectangle 68" transform="rotate(180 21.479 16.817)"/>
                            <path id="Rectangle_69" d="M0 0H12.404V2.767H0z" class="cls-3" data-name="Rectangle 69" transform="rotate(180 21.479 19.389)"/>
                            <path id="Rectangle_70" d="M0 0H27.592V2.767H0z" class="cls-3" data-name="Rectangle 70" transform="rotate(180 13.796 19.389)"/>
                            <path id="Rectangle_71" d="M0 0H42.958V2.767H0z" class="cls-3" data-name="Rectangle 71" transform="rotate(180 21.479 21.962)"/>
                            <path id="Rectangle_72" d="M0 0H11.378V2.767H0z" class="cls-3" data-name="Rectangle 72" transform="rotate(180 21.479 1.384)"/>
                            <path id="Rectangle_73" d="M0 0H28.663V2.767H0z" class="cls-3" data-name="Rectangle 73"/>
                        </g>
                    </g>
                    <g id="Group_30" data-name="Group 30" transform="translate(0 116.73)">
                        <path id="Rectangle_74" d="M0 0H51.764V52.309H0z" class="cls-15" data-name="Rectangle 74"/>
                        <g id="Group_29" data-name="Group 29" transform="translate(4.403 4.193)">
                            <path id="Rectangle_75" d="M0 0H42.958V2.767H0z" class="cls-3" data-name="Rectangle 75" transform="translate(0 36.012)"/>
                            <path id="Rectangle_76" d="M0 0H42.958V2.767H0z" class="cls-3" data-name="Rectangle 76" transform="translate(0 30.867)"/>
                            <path id="Rectangle_77" d="M0 0H11.047V2.767H0z" class="cls-3" data-name="Rectangle 77" transform="translate(31.91 25.723)"/>
                            <path id="Rectangle_78" d="M0 0H28.274V2.767H0z" class="cls-3" data-name="Rectangle 78" transform="translate(.059 25.723)"/>
                            <path id="Rectangle_79" d="M0 0H42.958V2.767H0z" class="cls-3" data-name="Rectangle 79" transform="translate(0 20.578)"/>
                            <path id="Rectangle_80" d="M0 0H42.958V2.767H0z" class="cls-3" data-name="Rectangle 80" transform="translate(0 15.434)"/>
                            <path id="Rectangle_81" d="M0 0H42.958V2.767H0z" class="cls-3" data-name="Rectangle 81" transform="translate(0 10.289)"/>
                            <path id="Rectangle_82" d="M0 0H19.96V2.767H0z" class="cls-3" data-name="Rectangle 82" transform="translate(0 5.144)"/>
                            <path id="Rectangle_83" d="M0 0H20.036V2.767H0z" class="cls-3" data-name="Rectangle 83" transform="translate(22.922 5.144)"/>
                            <path id="Rectangle_84" d="M0 0H42.958V2.767H0z" class="cls-3" data-name="Rectangle 84"/>
                            <path id="Rectangle_85" d="M0 0H20.02V2.767H0z" class="cls-3" data-name="Rectangle 85" transform="translate(0 41.156)"/>
                            <path id="Rectangle_86" d="M0 0H20.02V2.767H0z" class="cls-3" data-name="Rectangle 86" transform="rotate(180 21.479 21.962)"/>
                        </g>
                    </g>
                    <g id="Group_33" data-name="Group 33" transform="translate(51.71 116.73)">
                        <path id="Rectangle_87" d="M0 0H51.764V52.309H0z" class="cls-12" data-name="Rectangle 87"/>
                        <g id="Group_32" data-name="Group 32" transform="translate(13.32 10.495)">
                            <g id="Group_31" data-name="Group 31">
                                <path id="Path_73" d="M419.337 373.114l-20.765-.246-2.325-14.922 25.094-.044z" class="cls-16" data-name="Path 73" transform="translate(-396.248 -347.607)"/>
                                <path id="Path_74" d="M421.342 351.709l-25.094.044 12.529-10.338z" class="cls-16" data-name="Path 74" transform="translate(-396.248 -341.415)"/>
                                <path id="Rectangle_88" d="M0 0H17.126V14.467H0z" class="cls-11" data-name="Rectangle 88" transform="translate(3.798 8.858)"/>
                                <path id="Path_75" d="M396.248 357.972l.029 16.315 12.534-7.6z" class="cls-14" data-name="Path 75" transform="translate(-396.248 -347.634)"/>
                                <path id="Path_76" d="M428.9 357.9l.029 16.315-12.561-7.559z" class="cls-14" data-name="Path 76" transform="translate(-403.805 -347.607)"/>
                                <path id="Path_77" d="M421.388 377.839l-25.095.044 12.529-10.338z" class="cls-14" data-name="Path 77" transform="translate(-396.265 -351.23)"/>
                                <path id="Path_78" d="M396.294 377.883l12.529-10.338 12.566 10.294" class="cls-17" data-name="Path 78" transform="translate(-396.265 -351.23)"/>
                                <path id="Line_44" d="M0 7.499L10.733 0" class="cls-17" data-name="Line 44" transform="translate(14.362 10.294)"/>
                            </g>
                            <path id="Line_45" d="M10.761 7.462L0 0" class="cls-17" data-name="Line 45" transform="translate(0 10.338)"/>
                        </g>
                        <path id="Rectangle_89" d="M0 0H20.02V2.767H0z" class="cls-14" data-name="Rectangle 89" transform="rotate(180 17.946 23.075)"/>
                    </g>
                    <g id="Group_36" data-name="Group 36" transform="translate(0 7.591)">
                        <path id="Rectangle_90" d="M0 0H103.528V52.191H0z" class="cls-12" data-name="Rectangle 90"/>
                        <g id="Group_34" data-name="Group 34" transform="translate(50.306 7.505)">
                            <path id="Rectangle_91" d="M0 0H48.766V3.611H0z" class="cls-14" data-name="Rectangle 91" transform="rotate(180 24.383 1.806)"/>
                            <path id="Rectangle_92" d="M0 0H48.766V3.611H0z" class="cls-14" data-name="Rectangle 92" transform="rotate(180 24.383 5.163)"/>
                            <path id="Rectangle_93" d="M0 0H48.766V3.611H0z" class="cls-14" data-name="Rectangle 93" transform="rotate(180 24.383 8.52)"/>
                            <path id="Rectangle_94" d="M0 0H48.766V3.611H0z" class="cls-14" data-name="Rectangle 94" transform="rotate(180 24.383 11.877)"/>
                            <path id="Rectangle_95" d="M0 0H48.766V3.611H0z" class="cls-14" data-name="Rectangle 95" transform="rotate(180 24.383 18.591)"/>
                            <path id="Rectangle_96" d="M0 0H29.143V3.611H0z" class="cls-14" data-name="Rectangle 96" transform="rotate(180 24.383 15.234)"/>
                            <path id="Rectangle_97" d="M0 0H16.311V3.611H0z" class="cls-14" data-name="Rectangle 97" transform="translate(0 26.857)"/>
                        </g>
                        <g id="Group_35" data-name="Group 35" transform="translate(5.935 7.652)">
                            <path id="Rectangle_98" d="M0 0H36.887V36.887H0z" class="cls-14" data-name="Rectangle 98"/>
                            <path id="Path_79" d="M329.864 180.536l11.225 19.2h-22.45z" class="cls-11" data-name="Path 79" transform="translate(-308.001 -169.005)"/>
                            <path id="Path_80" d="M314.375 190.64l2.4 4.618-4.294 8.272h-4.794z" class="cls-11" data-name="Path 80" transform="translate(-303.886 -172.8)"/>
                            <path id="Path_81" d="M309.2 177.507a2.079 2.079 0 1 0 2.079-2.079 2.079 2.079 0 0 0-2.079 2.079z" class="cls-11" data-name="Path 81" transform="translate(-304.454 -167.086)"/>
                        </g>
                    </g>
                    <path id="Path_82" d="M327.239 140.977h58.395a1.661 1.661 0 0 0 1.661-1.661 1.661 1.661 0 0 0-1.661-1.661h-58.395a1.661 1.661 0 0 0-1.661 1.661 1.661 1.661 0 0 0 1.661 1.661z" class="cls-12" data-name="Path 82" transform="translate(-304.672 -137.655)"/>
                    <path id="Line_46" d="M0 0L0 104.618" class="cls-13" data-name="Line 46" transform="translate(51.764 64.421)"/>
                    <path id="Line_47" d="M0 0L103.528 0" class="cls-13" data-name="Line 47" transform="translate(0 116.73)"/>
                </g>
            </g>
            <path id="Line_48" fill="none" stroke="#849cf4" stroke-miterlimit="10" d="M0 0L348.124 0" data-name="Line 48" transform="translate(28.796 249.668)"/>
            <g id="Group_58" data-name="Group 58" transform="translate(210.369 108.242)">
                <g id="Group_53" data-name="Group 53" transform="translate(43.33 49.653)">
                    <g id="Group_50" data-name="Group 50" transform="translate(16.642 71.905)">
                        <g id="Group_49" data-name="Group 49">
                            <path id="Path_130" d="M507.921 417.718l.586 18.494-.6 5.817-22.048-.117a1.007 1.007 0 0 1-1-1.013 1.008 1.008 0 0 1 .651-.938l9.836-4.522-1.49-19.239" class="cls-19" data-name="Path 130" transform="translate(-483.746 -416.195)"/>
                            <path id="Path_131" fill="#18277a" d="M483.19 453.242a3.1 3.1 0 0 1 1.092-1.736l10.429-4.492c5.748 2.33 13.189.549 13.189.549l.57 7.852a.471.471 0 0 1-.473.468l-24.633-.13c-.51-.003-.181-2.488-.174-2.511z" data-name="Path 131" transform="translate(-483.079 -427.771)"/>
                            <path id="Path_132" d="M498.093 447.734a12.293 12.293 0 0 1 1.47 2.469" class="cls-21" data-name="Path 132" transform="translate(-488.718 -428.042)"/>
                            <path id="Path_133" d="M495.991 448.992a10.822 10.822 0 0 1 1.208 2.1" class="cls-21" data-name="Path 133" transform="translate(-487.929 -428.514)"/>
                            <path id="Path_134" d="M494.213 449.909a15.405 15.405 0 0 1 1.133 1.926" class="cls-21" data-name="Path 134" transform="translate(-487.261 -428.859)"/>
                        </g>
                        <path id="Line_56" d="M25.254 0.133L0 0" class="cls-21" data-name="Line 56" transform="translate(.004 26.284)"/>
                        <path id="Path_135" d="M519.332 452.487s-5.848.041-6.374 3.722" class="cls-21" data-name="Path 135" transform="translate(-494.302 -429.827)"/>
                        <path id="Path_136" d="M488.429 452.734a19.734 19.734 0 0 1 2.017 3.5" class="cls-21" data-name="Path 136" transform="translate(-485.089 -429.92)"/>
                    </g>
                    <path id="Path_137" fill="#0d219b" d="M508.439 301.794a35.221 35.221 0 0 1 3.458 7.888 27.724 27.724 0 0 1 0 10.84l-.054 64.649h-16.372s-3.632-74.5-2.018-84.136" data-name="Path 137" transform="translate(-470.179 -301.034)"/>
                    <path id="Path_138" d="M499.471 385.17s-3.632-74.5-2.018-84.136" class="cls-21" data-name="Path 138" transform="translate(-471.681 -301.034)"/>
                    <g id="Group_52" data-name="Group 52" transform="translate(9.12 66.145)">
                        <g id="Group_51" data-name="Group 51">
                            <path id="Path_139" d="M484.652 406.971l7.437 16.943 1.61 5.621-20.5 8.11a1.008 1.008 0 0 1-1.308-.566 1.008 1.008 0 0 1 .254-1.113l7.441-7.863-8.55-17.3" class="cls-19" data-name="Path 139" transform="translate(-471.033 -406.971)"/>
                            <path id="Path_140" d="M471.368 448.217a3.1 3.1 0 0 1 .366-2.019l8-8.055c6.2.02 12.443-4.406 12.443-4.406l3.455 7.074a.471.471 0 0 1-.264.611l-22.906 9.06c-.471.188-1.092-2.241-1.094-2.265z" class="cls-23" data-name="Path 140" transform="translate(-471.153 -417.025)"/>
                            <path id="Path_141" d="M481.7 442.81a12.306 12.306 0 0 1 2.284 1.743" class="cls-21" data-name="Path 141" transform="translate(-475.038 -420.433)"/>
                            <path id="Path_142" d="M480.213 444.76a10.805 10.805 0 0 1 1.9 1.5" class="cls-21" data-name="Path 142" transform="translate(-474.481 -421.165)"/>
                            <path id="Path_143" d="M478.9 446.274a15.43 15.43 0 0 1 1.77 1.365" class="cls-21" data-name="Path 143" transform="translate(-473.99 -421.734)"/>
                        </g>
                        <path id="Line_57" d="M23.484 0L0 9.289" class="cls-21" data-name="Line 57" transform="translate(.418 22.697)"/>
                        <path id="Path_144" d="M503.95 437.875s-5.411 2.217-4.527 5.829" class="cls-21" data-name="Path 144" transform="translate(-481.66 -418.579)"/>
                        <path id="Path_145" d="M474.591 451.051a19.767 19.767 0 0 1 3.176 2.494" class="cls-21" data-name="Path 145" transform="translate(-472.37 -423.528)"/>
                    </g>
                    <path id="Path_146" d="M466.465 313.9c-8.411 20.672-8.562 22.86-9.947 32.948-1.421 10.35 14.132 40.827 14.132 40.827l14.923-6.589s-9.9-27.886-9.258-32.681c1.178-8.821 11.36-23.873 11.36-23.873s4.834-3.827 5.885-8.911-1.261-10.408-1.261-10.408" class="cls-23" data-name="Path 146" transform="translate(-456.426 -302.603)"/>
                    <path id="Path_147" d="M497.076 321.758c.219-.073 6.7-2.112 6.7-2.112" class="cls-21" data-name="Path 147" transform="translate(-471.695 -308.025)"/>
                    <path id="Line_58" d="M0 0.678L2.132 0" class="cls-21" data-name="Line 58" transform="translate(39.672 9.05)"/>
                    <path id="Path_148" d="M473.337 318.125s-10.4 22.6-11.82 32.948 13.707 39.979 13.707 39.979" class="cls-21" data-name="Path 148" transform="translate(-458.303 -307.454)"/>
                    <path id="Path_149" d="M493.824 344.73a107.447 107.447 0 0 1 7.9-13.938s4.834-3.827 5.885-8.91" class="cls-21" data-name="Path 149" transform="translate(-470.473 -308.865)"/>
                </g>
                <g id="Group_56" data-name="Group 56" transform="translate(37.423)">
                    <path id="Path_150" d="M466.029 237.2l4.279 7.447s-2.565 5.548-9.5 2.915l-1.776-3.934z" class="cls-19" data-name="Path 150" transform="translate(-451.498 -227.404)"/>
                    <path id="Path_151" d="M451.667 228.446s-2.106 9.9 1.561 11.671c1.907.918 7.238.35 8.5-1.683.935-1.508.568-8.651-.576-9.518-4.373-3.31-9.485-.47-9.485-.47z" class="cls-19" data-name="Path 151" transform="translate(-448.505 -223.69)"/>
                    <path id="Path_152" fill="#212237" d="M459.412 223.334c-1.6-2.8-4.867-2.242-10.172.778-.71.4-2.257.549-2.275 1.366-.023 1.073.75 2.842 1.993 3.2a3.506 3.506 0 0 0 2.108-.035c1.1-.257 2.579.189 2.563 1.486 0 .34-.1.962.214 1.084a3.375 3.375 0 0 0 .747.019c.5.016.767.627.706 1.12s.252.853.189 1.346c-.15 1.169 1.342 2.45 2.517 2.541 1.039.08 4.069-.425 5.506-2.378 1.247-1.694 1.088-4.552-.992-8.808-.8-1.634-2.55-2.13-3.104-1.719z" data-name="Path 152" transform="translate(-446.964 -221.511)"/>
                    <path id="Path_153" d="M457.483 236.832c.338-1.586 1.157-1.763 1.864-1.333.943.575.735 2.838.386 3.379-.709 1.1-1.553 1.434-2.032.656" class="cls-19" data-name="Path 153" transform="translate(-450.915 -226.69)"/>
                    <path id="Path_154" d="M459.573 246.894a3.359 3.359 0 0 0 .928-2.639" class="cls-25" data-name="Path 154" transform="translate(-451.7 -230.054)"/>
                    <g id="Group_55" data-name="Group 55" transform="translate(3.361 9.294)">
                        <g id="Group_54" data-name="Group 54">
                            <path id="Path_155" d="M452.469 236.592c-.152.341-.2.85.082 1.066a.223.223 0 0 0 .262.009c.55-.342-.026-1.789-.344-1.075z" class="cls-26" data-name="Path 155" transform="translate(-452.347 -236.396)"/>
                        </g>
                    </g>
                    <path id="Path_156" fill="none" stroke="#28364c" stroke-miterlimit="10" stroke-width="0.75px" d="M451.823 234.944a2.386 2.386 0 0 1 1.608.34" data-name="Path 156" transform="translate(-448.789 -226.55)"/>
                    <path id="Path_157" d="M453.785 242.516l-1.6-.053s-.065 1.966.686 2c.829.046.914-1.947.914-1.947z" class="cls-11" data-name="Path 157" transform="translate(-448.925 -229.381)"/>
                </g>
                <g id="Group_57" data-name="Group 57" transform="translate(0 15.226)">
                    <path id="Path_158" d="M475.506 246.191a18.532 18.532 0 0 1 9 .581 34.635 34.635 0 0 1 14.38 9.165c7.382 7.85 3.978 27.358 3.978 27.358l-9.6-.363s1.506-12.536-3.52-17.563a24.923 24.923 0 0 0-12.122-6.206" class="cls-28" data-name="Path 158" transform="translate(-420.262 -245.897)"/>
                    <path id="Path_159" d="M401.55 290.259c-3.007.835-12.117 1.825-12.265 2.447s3.063.316 2.847.8-5.121 1.293-5.1 1.954c.026.9 5.007-.2 5.007-.2s-2.07.37-1.823 1.14c.175.546 1.019.713 2.657.556-.9.2-1.25.636-1.056 1.2s1.062.521 1.984.4c-.634.144-1.122.565-.714.933.535.481 4.255.275 10.841-.845" class="cls-19" data-name="Path 159" transform="translate(-387.029 -262.56)"/>
                    <path id="Path_160" d="M458.538 248.858a7.742 7.742 0 0 0 5.41 0 11.049 11.049 0 0 0 4.07-2.493s6.452-.443 14.3 7.41c7.931 7.931 14.1 30.424 14.1 30.424l-32.508 10.925s-5.56-19.694-7.747-28.662 2.375-17.604 2.375-17.604z" class="cls-28" data-name="Path 160" transform="translate(-412.774 -246.071)"/>
                    <path id="Path_161" d="M497.735 254.93c6.5 7.587 14.52 32.487 14.52 32.487" class="cls-29" data-name="Path 161" transform="translate(-428.612 -249.29)"/>
                    <path id="Path_162" d="M439.386 250.36c-4.282 1.64-7.958 5.8-10.216 10.076-3.7 7.012-5.95 12.1-5.95 12.1l-18.639 2.794.925 9.942s12.653-.375 22.738-1.891c7.165-1.078 12.713-15.931 12.713-15.931" class="cls-28" data-name="Path 162" transform="translate(-393.621 -247.574)"/>
                    <path id="Path_163" d="M458.314 249.31s2.063 2.752 7.006.9 5.122-4.144 5.122-4.144" class="cls-29" data-name="Path 163" transform="translate(-413.805 -245.96)"/>
                    <path id="Line_59" d="M0 4.281L2.026 0" class="cls-29" data-name="Line 59" transform="translate(44.959 20.704)"/>
                    <path id="Line_60" d="M0 0L0.7 10.238" class="cls-29" data-name="Line 60" transform="translate(13.875 27.317)"/>
                    <path id="Line_61" d="M0 10.731L32.462 0" class="cls-29" data-name="Line 61" transform="translate(50.54 36.198)"/>
                </g>
            </g>
            <g id="Group_71" data-name="Group 71" transform="translate(98.234 89.795)">
                <path id="Path_164" d="M263.208 277.476c.147.1.295.19.443.284a18.681 18.681 0 0 0 4.592 2.343 7.818 7.818 0 0 1 2.784 1.053 7.774 7.774 0 0 0 .94.722c.093.054 1.015.4.975.3a1.359 1.359 0 0 0 .828.624.226.226 0 0 0 .121.024.077.077 0 0 0 .064-.09c.119.232.539.335.671.209s-.2-.712-.2-.712.225.016.291-.059a.746.746 0 0 0 .141-.453 5.33 5.33 0 0 0-1.579-4.11" class="cls-19" data-name="Path 164" transform="translate(-228.385 -224.086)"/>
                <path id="Path_165" d="M279.911 282.457a10.819 10.819 0 0 1 .641 1.445" class="cls-30" data-name="Path 165" transform="translate(-234.659 -225.957)"/>
                <path id="Path_166" d="M277.407 282.457a7.5 7.5 0 0 1 1.617 1.856" class="cls-30" data-name="Path 166" transform="translate(-233.718 -225.957)"/>
                <g id="Group_59" data-name="Group 59" transform="translate(11.387 54.883)">
                    <path id="Line_62" d="M11.093 113.233L0 0" class="cls-31" data-name="Line 62" transform="translate(11.094)"/>
                    <path id="Path_167" d="M297.727 393.1l-11.094-113.233H243.44" class="cls-31" data-name="Path 167" transform="translate(-232.347 -279.867)"/>
                    <path id="Line_63" d="M0 113.233L11.094 0" class="cls-31" data-name="Line 63" transform="translate(43.193)"/>
                    <path id="Path_168" d="M225.673 393.1l11.094-113.233h43.193" class="cls-31" data-name="Path 168" transform="translate(-225.673 -279.867)"/>
                    <path id="Line_64" d="M62.033 0L0 0" class="cls-31" data-name="Line 64" transform="translate(1.572 97.192)"/>
                    <path id="Line_65" d="M59.232 0L0 0" class="cls-31" data-name="Line 65" transform="translate(2.93 83.326)"/>
                    <path id="Line_66" d="M56.728 0L0 0" class="cls-31" data-name="Line 66" transform="translate(4.326 69.08)"/>
                    <path id="Line_67" d="M54.014 0L0 0" class="cls-31" data-name="Line 67" transform="translate(5.656 55.501)"/>
                    <path id="Line_68" d="M51.347 0L0 0" class="cls-31" data-name="Line 68" transform="translate(6.987 41.316)"/>
                    <path id="Line_69" d="M48.58 0L0 0" class="cls-31" data-name="Line 69" transform="translate(8.377 27.259)"/>
                    <path id="Line_70" d="M45.618 0L0 0" class="cls-31" data-name="Line 70" transform="translate(9.724 13.983)"/>
                </g>
                <path id="Path_169" d="M259.349 276.638q6.647.021 13.294-.03a6.737 6.737 0 0 0-1.155-1.69 6.2 6.2 0 0 0-1.651-1.238 15.025 15.025 0 0 0-6.687-1.648" class="cls-19" data-name="Path 169" transform="translate(-226.935 -222.041)"/>
                <path id="Path_170" fill="#e23917" d="M227.376 230.48s6.061 15.8 7.576 17.124 15.954 8.5 15.954 8.5l-4.426 9.365s-17.371-6.939-19.86-9.365-10.407-11.829-11.2-21.268" data-name="Path 170" transform="translate(-210.433 -206.434)"/>
                <g id="Group_64" data-name="Group 64" transform="translate(.436 59.069)">
                    <g id="Group_61" data-name="Group 61" transform="translate(3.696 66.917)">
                        <g id="Group_60" data-name="Group 60">
                            <path id="Path_171" d="M215.66 395.081l-.622 17.005.526 5.352 20.278-.008a.927.927 0 0 0 .927-.927.927.927 0 0 0-.594-.865l-9.025-4.2 1.453-17.69" class="cls-19" data-name="Path 171" transform="translate(-214.423 -393.744)"/>
                            <path id="Path_172" d="M237.312 427.855a2.854 2.854 0 0 0-1-1.6l-9.571-4.177c-5.3 2.117-12.132.445-12.132.445l-.56 7.218a.432.432 0 0 0 .433.432l22.654-.008c.474-.001.183-2.288.176-2.31z" class="cls-33" data-name="Path 172" transform="translate(-214.053 -404.386)"/>
                            <path id="Path_173" d="M236.881 422.754a11.3 11.3 0 0 0-1.363 2.264" class="cls-34" data-name="Path 173" transform="translate(-222.116 -404.641)"/>
                            <path id="Path_174" d="M238.955 423.92a9.933 9.933 0 0 0-1.121 1.925" class="cls-34" data-name="Path 174" transform="translate(-222.986 -405.079)"/>
                            <path id="Path_175" d="M240.628 424.772a14.108 14.108 0 0 0-1.051 1.766" class="cls-34" data-name="Path 175" transform="translate(-223.64 -405.399)"/>
                        </g>
                        <path id="Line_71" d="M0 0.008L23.225 0" class="cls-34" data-name="Line 71" transform="translate(.129 24.217)"/>
                        <path id="Path_176" d="M214.623 427.011s5.377.064 5.844 3.452" class="cls-34" data-name="Path 176" transform="translate(-214.267 -406.24)"/>
                        <path id="Path_177" d="M245.442 427.4a18.164 18.164 0 0 0-1.871 3.208" class="cls-34" data-name="Path 177" transform="translate(-225.141 -406.384)"/>
                    </g>
                    <path id="Path_178" d="M208.588 290.9a35.279 35.279 0 0 0 2.248 19.166 156.158 156.158 0 0 1 2.2 23.525c.168 12.8-1.537 29.111-1.537 35.2h16.682s2.045-17.346 2.227-34.829c.2-19.583-1.454-41.686-1.454-47.393" class="cls-28" data-name="Path 178" transform="translate(-208.134 -286.572)"/>
                    <path id="Path_179" d="M236.241 368.794s2.049-17.666 2.233-35.368c.2-19.447-1.46-41.2-1.46-46.853" class="cls-29" data-name="Path 179" transform="translate(-218.691 -286.572)"/>
                    <g id="Group_63" data-name="Group 63" transform="translate(31.9 53.077)">
                        <g id="Group_62" data-name="Group 62">
                            <path id="Path_180" d="M260.829 372.916l-.622 17.005.526 5.352 20.278-.008a.927.927 0 0 0 .927-.927.928.928 0 0 0-.594-.865l-9.025-4.2 1.453-17.689" class="cls-19" data-name="Path 180" transform="translate(-259.593 -371.579)"/>
                            <path id="Path_181" d="M282.483 405.69a2.855 2.855 0 0 0-1-1.6l-9.571-4.178c-5.3 2.117-12.132.446-12.132.446l-.56 7.219a.432.432 0 0 0 .433.432l22.658-.009c.47 0 .179-2.289.172-2.31z" class="cls-33" data-name="Path 181" transform="translate(-259.224 -382.221)"/>
                            <path id="Path_182" d="M282.052 400.589a11.315 11.315 0 0 0-1.364 2.264" class="cls-34" data-name="Path 182" transform="translate(-267.286 -382.476)"/>
                            <path id="Path_183" d="M284.126 401.755a9.932 9.932 0 0 0-1.121 1.925" class="cls-34" data-name="Path 183" transform="translate(-268.157 -382.914)"/>
                            <path id="Path_184" d="M285.8 402.607a14.1 14.1 0 0 0-1.051 1.766" class="cls-34" data-name="Path 184" transform="translate(-268.811 -383.234)"/>
                        </g>
                        <path id="Line_72" d="M0 0.008L23.225 0" class="cls-34" data-name="Line 72" transform="translate(.129 24.217)"/>
                        <path id="Path_185" d="M259.793 404.846s5.378.064 5.844 3.452" class="cls-34" data-name="Path 185" transform="translate(-259.438 -384.075)"/>
                        <path id="Path_186" d="M290.612 405.23a18.193 18.193 0 0 0-1.871 3.208" class="cls-34" data-name="Path 186" transform="translate(-270.311 -384.219)"/>
                    </g>
                    <path id="Path_187" d="M240.817 292.933s16.03 15.194 19.641 25.088c2.518 6.9-1.141 38.382-1.141 38.382h-15.965s1.946-28.658.938-31.616c-1.184-3.478-14.93-15.338-14.93-15.338a13.5 13.5 0 0 1-8.63-7.547c-2.494-5.62-1.339-12.438-1.339-12.438" class="cls-28" data-name="Path 187" transform="translate(-212.262 -287.658)"/>
                    <path id="Path_188" d="M247.868 295.02s16.617 17.564 19.641 25.088c2.3 5.716-1.141 38.382-1.141 38.382" class="cls-29" data-name="Path 188" transform="translate(-223.059 -289.745)"/>
                    <path id="Path_189" d="M235.161 321.257c-1.259-1.143-3.44-3.105-4.1-3.688a4.39 4.39 0 0 0-1.45-.854 13.617 13.617 0 0 1-7.911-7.331" class="cls-29" data-name="Path 189" transform="translate(-213.228 -295.141)"/>
                    <path id="Path_190" d="M228.773 303.778s4.78.167 6.779 0" class="cls-29" data-name="Path 190" transform="translate(-215.886 -293.035)"/>
                    <path id="Line_73" d="M0 0L3.854 0" class="cls-29" data-name="Line 73" transform="translate(0 10.743)"/>
                </g>
                <g id="Group_67" data-name="Group 67" transform="translate(0 17.322)">
                    <g id="Group_66" data-name="Group 66" transform="translate(57.638 4.867)">
                        <g id="Group_65" data-name="Group 65">
                            <path id="Path_191" d="M299.748 231.187c1.675-.764 9.3-4.1 9.484-3.637.173.446-2.238 2.054-1.971 2.13a14.75 14.75 0 0 0 3.385-1.047c.963-.472 2.586-1.073 2.845-.68.494.746-4.82 3.269-4.82 3.269s.94-.432 1.417.149c.689.839-.769 1.614-.769 1.614s.835-.425 1.111.3c.287.75-.964 1.359-.964 1.359s.992-.476 1.117.43c.165 1.189-7.765 3.987-7.765 3.987" class="cls-19" data-name="Path 191" transform="translate(-299.748 -227.506)"/>
                        </g>
                    </g>
                    <path id="Path_192" d="M226.418 220.542a5.483 5.483 0 0 1-4.14.832c-2.546-.434-3.165-1.663-3.165-1.663s-6.773.943-10.029 21.83a136.1 136.1 0 0 0-1.527 26.611h30.878s.943-31.911-.627-37.842" class="cls-33" data-name="Path 192" transform="translate(-207.436 -219.711)"/>
                    <path id="Path_193" d="M240.267 236.393s9.147 10.1 17.681 10.1 24.6-9.058 24.6-9.058l-3.837-10.533-18.667 6.7s-9.831-9.184-14.367-10.877a24.507 24.507 0 0 0-7.839-1.681" class="cls-33" data-name="Path 193" transform="translate(-218.855 -220.211)"/>
                    <path id="Path_194" d="M252.354 254.213s-5.745-4.382-8.518-6.44" class="cls-34" data-name="Path 194" transform="translate(-221.108 -230.252)"/>
                    <path id="Line_74" d="M0 0L3.515 11.029" class="cls-34" data-name="Line 74" transform="translate(58.073 7.334)"/>
                    <path id="Line_75" d="M0 0L31.039 0" class="cls-34" data-name="Line 75" transform="translate(.027 45.871)"/>
                    <path id="Path_195" d="M248.75 251.462c.3 8.876 0 28.616 0 28.616" class="cls-34" data-name="Path 195" transform="translate(-222.954 -231.637)"/>
                </g>
                <g id="Group_70" data-name="Group 70" transform="translate(3.801)">
                    <path id="Path_196" d="M225.894 212.421l-.7 5.635s5.44 2.853 9.048-.179v-3.287z" class="cls-19" data-name="Path 196" transform="translate(-217.907 -199.65)"/>
                    <path id="Path_197" d="M233.48 198.255s6.357 8.015 4.033 10.984c-1.208 1.544-5.15 1.174-7.029 0-1.394-.871-5.287-5.521-4.691-6.709 2.275-4.541 7.687-4.275 7.687-4.275z" class="cls-19" data-name="Path 197" transform="translate(-218.109 -194.328)"/>
                    <path id="Path_198" d="M228.077 198.8a40 40 0 0 1-.311 6.152l-.487 10.548s-8.389.894-13.755-2.832c0 0 1.8-11.084 5.8-14.442 3.8-3.194 8.755-2.963 11.27-.9 0 0-.35.968-.819 1.191a6.577 6.577 0 0 1-1.7.28" class="cls-35" data-name="Path 198" transform="translate(-213.524 -193.407)"/>
                    <path id="Path_199" d="M236.586 208.327c-.777-.984-1.4-.828-1.748-.287-.457.721.46 2.218.887 2.474.865.518 1.567.464 1.633-.239" class="cls-19" data-name="Path 199" transform="translate(-221.483 -197.844)"/>
                    <path id="Path_200" d="M239.071 216.968a1.29 1.29 0 0 1-1.209-.768" class="cls-25" data-name="Path 200" transform="translate(-222.666 -201.07)"/>
                    <g id="Group_69" data-name="Group 69" transform="translate(16.682 7.9)">
                        <g id="Group_68" data-name="Group 68">
                            <path id="Path_201" d="M240.6 204.712c.266.222.515.624.368.919a.206.206 0 0 1-.214.115c-.594-.059-.708-1.497-.154-1.034z" class="cls-26" data-name="Path 201" transform="translate(-240.241 -204.62)"/>
                        </g>
                    </g>
                    <path id="Path_202" fill="none" stroke="#28364c" stroke-linecap="round" stroke-miterlimit="10" stroke-width="0.5px" d="M239.979 203.015a1.394 1.394 0 0 0-1.2.941" data-name="Path 202" transform="translate(-223.011 -196.117)"/>
                    <path id="Path_203" d="M241.6 211.123l1.413-.453s.556 1.736-.1 1.96c-.739.248-1.313-1.507-1.313-1.507z" class="cls-11" data-name="Path 203" transform="translate(-224.068 -198.993)"/>
                    <path id="Path_204" d="M227.572 194.9a1.328 1.328 0 0 0 .937-1.307 1.681 1.681 0 0 0-.907-1.387 2.31 2.31 0 0 0-1.689-.143 1.618 1.618 0 0 0-.79 2.709 1.524 1.524 0 0 0 .86.652 2.587 2.587 0 0 0 1.522-.292" class="cls-35" data-name="Path 204" transform="translate(-217.741 -191.968)"/>
                </g>
                <path id="Path_205" d="M241.9 204.62c.159.087 1.833.812 1.844 1.487.006.381-.922.795-.922.795" class="cls-19" data-name="Path 205" transform="translate(-220.381 -196.72)"/>
                <path id="Path_206" d="M274.394 277.29a9.811 9.811 0 0 1 1.736 3 .318.318 0 0 1 .037.122c.006.2-.293.217-.478.146a3.9 3.9 0 0 1-1.164-.693 2.85 2.85 0 0 0-.423-.335 2.5 2.5 0 0 0-.953-.223 4.365 4.365 0 0 1-3.345-2.018" class="cls-19" data-name="Path 206" transform="translate(-230.862 -224.016)"/>
                <path id="Path_207" d="M274.394 277.29a9.811 9.811 0 0 1 1.736 3 .318.318 0 0 1 .037.122c.006.2-.293.217-.478.146a3.9 3.9 0 0 1-1.164-.693 2.85 2.85 0 0 0-.423-.335 2.5 2.5 0 0 0-.953-.223 4.365 4.365 0 0 1-3.345-2.018" class="cls-25" data-name="Path 207" transform="translate(-230.862 -224.016)"/>
            </g>
        </g>
    </g>
</svg>
