<svg xmlns="http://www.w3.org/2000/svg" width="100.018" height="77.709" viewBox="0 0 100.018 77.709">
    <defs>
        <style>
            .cls-2{fill:#6074db}
        </style>
    </defs>
    <g id="quotation-marks" opacity="0.711" transform="translate(0 -39.159)">
        <path id="Path_10623" d="M20.6 69.971c1.22-7.67 10.808-15.864 18.3-16.038a1.979 1.979 0 0 0 1.4-.523 1.432 1.432 0 0 0 .872-.872c2.615-4.881 1.22-8.716-3.138-11.854-5.055-3.661-13.074 0-17.084 3.312C10.84 52.364.554 66.833 1.077 80.605-.666 89.845-.317 99.781 2.3 107.974c1.743 5.23 6.8 7.845 12.028 8.193s16.038 1.918 20.745-1.22 5.055-9.24 5.578-14.469c.523-5.753 2.092-16.561-2.789-21.094-4.883-4.357-18.829.349-17.262-9.413z" class="cls-2"/>
        <path id="Path_10624" d="M222.562 69.971c1.22-7.67 10.808-15.864 18.3-16.038a1.98 1.98 0 0 0 1.395-.523 1.432 1.432 0 0 0 .872-.872c2.615-4.881 1.22-8.716-3.138-11.854-5.055-3.661-13.074 0-17.084 3.312-10.111 8.368-20.4 22.837-19.873 36.608-1.743 9.24-1.395 19.176 1.22 27.369 1.743 5.23 6.8 7.845 12.029 8.193s16.038 1.918 20.745-1.22 5.055-9.24 5.578-14.469c.523-5.753 2.092-16.561-2.789-21.094-4.878-4.356-18.998.35-17.255-9.412z" class="cls-2" transform="translate(-144.433)"/>
    </g>
</svg>
