<svg xmlns="http://www.w3.org/2000/svg" width="17.779" height="14.075" viewBox="0 0 17.779 14.075">
    <g>
        <path fill="#2196f3" d="M17.751 60.507a.37.37 0 0 0-.081-.4L11 53.437a.37.37 0 0 0-.524.524L16.514 60H.37a.37.37 0 0 0 0 .741h16.144l-6.034 6.03a.37.37 0 1 0 .515.533l.005-.009 6.667-6.667a.371.371 0 0 0 .084-.121z" transform="translate(0 -53.333)"/>
        <path d="M299.018 67.425a.37.37 0 0 1-.262-.633l6.406-6.4-6.406-6.4a.37.37 0 0 1 .524-.524l6.667 6.667a.37.37 0 0 1 0 .524l-6.667 6.667a.37.37 0 0 1-.262.099z" transform="translate(0 -53.333) translate(-288.277 -.022)"/>
        <path d="M17.409 245.954H.37a.37.37 0 1 1 0-.741h17.039a.37.37 0 1 1 0 .741z" transform="translate(0 -53.333) translate(0 -185.217)"/>
    </g>
</svg>
