<svg xmlns="http://www.w3.org/2000/svg" width="32" height="29.333" viewBox="0 0 32 29.333">
    <defs>
        <style>
            .cls-1{fill:#32325d}
        </style>
    </defs>
    <g id="web-programming_1_" data-name="web-programming (1)" transform="translate(0 -1)">
        <path id="Path_6560" d="M7 20.663a1 1 0 0 1-.706-1.707l3.624-3.624-3.626-3.626a1 1 0 1 1 1.414-1.414l4.332 4.332a1 1 0 0 1 0 1.414L7.706 20.37a.992.992 0 0 1-.706.293z" class="cls-1" data-name="Path 6560" transform="translate(2 3.002)"/>
        <path id="Path_6561" d="M19 18.5h-6a1 1 0 0 1 0-2h6a1 1 0 1 1 0 2z" class="cls-1" data-name="Path 6561" transform="translate(4.002 5.167)"/>
        <path id="Path_6562" d="M28.333 30.333H3.667A3.67 3.67 0 0 1 0 26.667v-22A3.67 3.67 0 0 1 3.667 1h24.666A3.67 3.67 0 0 1 32 4.667v22a3.67 3.67 0 0 1-3.667 3.666zM3.667 3A1.669 1.669 0 0 0 2 4.667v22a1.669 1.669 0 0 0 1.667 1.667h24.666A1.669 1.669 0 0 0 30 26.667v-22A1.669 1.669 0 0 0 28.333 3z" class="cls-1" data-name="Path 6562"/>
        <path id="Path_6563" d="M31 6.5H1a1 1 0 1 1 0-2h30a1 1 0 1 1 0 2z" class="cls-1" data-name="Path 6563" transform="translate(0 1.167)"/>
    </g>
</svg>
